<svg width="0" height="0" class="hidden">
  <symbol fill="none" xmlns="http://www.w3.org/2000/svg" viewBox="0 0 21 20" id="email">
    <g clip-path="url(#clip0_286_1486)">
      <path d="M20.5 7.93184V7.93008C20.5 7.9134 20.4991 7.89687 20.4977 7.88043C20.4973 7.87594 20.4967 7.87148 20.4963 7.86699C20.4949 7.85416 20.493 7.84138 20.4908 7.82867C20.49 7.82391 20.4892 7.81914 20.4882 7.81441C20.4852 7.79901 20.4815 7.78374 20.4772 7.76863L20.476 7.76414C20.4714 7.74879 20.4662 7.73364 20.4604 7.71871C20.4582 7.71301 20.4557 7.70742 20.4534 7.70176C20.4491 7.69168 20.4445 7.68173 20.4397 7.67191C20.4369 7.66621 20.4342 7.66047 20.4312 7.65484C20.4239 7.64112 20.4161 7.62769 20.4078 7.61457C20.4046 7.60969 20.4012 7.605 20.3979 7.6002C20.388 7.58551 20.3773 7.57129 20.3661 7.55758C20.3558 7.54505 20.3451 7.53295 20.3338 7.52133L20.3312 7.51859C20.319 7.50631 20.3062 7.49458 20.2929 7.48344C20.2913 7.48203 20.2899 7.48047 20.2882 7.4791L19.2891 6.65V4.10199C19.2891 3.34812 18.6757 2.7348 17.9219 2.7348H14.5712L11.872 0.494766C11.077 -0.164922 9.92297 -0.164922 9.12797 0.494766L6.42875 2.73477H3.07812C2.32426 2.73477 1.71094 3.34809 1.71094 4.10195V6.64996L0.711758 7.47918C0.710117 7.48055 0.708672 7.48211 0.707031 7.48352C0.693768 7.49466 0.681008 7.50639 0.668789 7.51867L0.666133 7.52141C0.654898 7.53304 0.644147 7.54514 0.633906 7.55766C0.629961 7.56242 0.626172 7.5673 0.622383 7.57219C0.615312 7.58137 0.608555 7.59074 0.602031 7.60027C0.59875 7.60508 0.595312 7.60977 0.592187 7.61465C0.583828 7.62773 0.576055 7.64117 0.56875 7.65492C0.565742 7.66055 0.563047 7.66629 0.560273 7.67199C0.55543 7.6818 0.550898 7.69176 0.546602 7.70184C0.544219 7.70746 0.541797 7.71309 0.539609 7.71879C0.533828 7.73371 0.528477 7.74879 0.523945 7.76422L0.522734 7.76871C0.513582 7.80089 0.507217 7.8338 0.503711 7.86707C0.503242 7.87156 0.502656 7.87602 0.502266 7.88051C0.500937 7.89687 0.5 7.9134 0.5 7.93008V17.8512C0.5 18.4652 0.759297 19.0194 1.17367 19.4113C1.18543 19.423 1.19723 19.4347 1.2098 19.4453C1.59094 19.7896 2.09559 19.9996 2.64844 19.9996H18.3516C18.9045 19.9996 19.4091 19.7895 19.7903 19.4452C19.8028 19.4346 19.8145 19.4231 19.8262 19.4114C20.2406 19.0195 20.5 18.4652 20.5 17.8511V7.93184ZM3.07812 3.90664H17.9219C18.0296 3.90664 18.1172 3.99426 18.1172 4.10195V8.65984L17.7856 8.935L11.1237 14.4636C10.7623 14.7635 10.2377 14.7635 9.87633 14.4636L3.21438 8.93504L2.88281 8.65984V4.10195C2.88281 3.99426 2.97043 3.90664 3.07812 3.90664ZM1.67188 17.8512V9.17773L1.92391 9.38691L1.92438 9.3873L7.64582 14.1354L1.73187 18.1882C1.69208 18.0803 1.67177 17.9662 1.67188 17.8512ZM8.58348 14.9135L9.12797 15.3654C9.92297 16.0252 11.077 16.0251 11.872 15.3654L12.4165 14.9135L18.1282 18.8277H2.87172L8.58348 14.9135ZM13.3542 14.1354L19.0756 9.3873L19.0761 9.38691L19.3281 9.17773V17.8512C19.3281 17.9696 19.3069 18.0831 19.2681 18.1882L13.3542 14.1354ZM9.87633 1.3966C10.2377 1.09672 10.7623 1.09672 11.1237 1.3966L12.7362 2.7348H8.26379L9.87633 1.3966Z" fill="currentColor"></path>
      <path d="M5.63672 6.44482C5.63672 6.76842 5.89906 7.03076 6.22266 7.03076H11.7695C12.0931 7.03076 12.3555 6.76842 12.3555 6.44482C12.3555 6.12123 12.0931 5.85889 11.7695 5.85889H6.22266C5.89906 5.85889 5.63672 6.12123 5.63672 6.44482ZM6.22266 9.37451H14.7773C15.0503 9.37451 15.279 9.18756 15.3441 8.9349C15.3562 8.88803 15.3633 8.8392 15.3633 8.78857C15.3633 8.46498 15.1009 8.20264 14.7773 8.20264H6.22266C5.89906 8.20264 5.63672 8.46498 5.63672 8.78857C5.63672 8.8392 5.64383 8.88807 5.6559 8.9349C5.72098 9.1876 5.94969 9.37451 6.22266 9.37451Z" fill="currentColor"></path>
    </g>
    <defs>
      <clipPath id="clip0_286_1486">
        <rect width="20" height="20" fill="currentColor" transform="translate(0.5)"></rect>
      </clipPath>
    </defs>
  </symbol>
  <symbol fill="none" xmlns="http://www.w3.org/2000/svg" viewBox="0 0 20 20" id="location">
    <path d="M13.3389 13.2143C15.4671 9.87469 15.1996 10.2913 15.2609 10.2043C16.0358 9.11137 16.4453 7.82508 16.4453 6.48438C16.4453 2.92891 13.5601 0 10 0C6.45148 0 3.55469 2.92313 3.55469 6.48438C3.55469 7.82422 3.97281 9.14418 4.77305 10.2518L6.66102 13.2143C4.64246 13.5245 1.21094 14.4489 1.21094 16.4844C1.21094 17.2264 1.69523 18.2838 4.00242 19.1078C5.61344 19.6831 7.7434 20 10 20C14.2197 20 18.7891 18.8097 18.7891 16.4844C18.7891 14.4486 15.3616 13.5251 13.3389 13.2143ZM5.75191 9.60723C5.74547 9.59716 5.73874 9.58729 5.73172 9.57762C5.06582 8.66152 4.72656 7.57582 4.72656 6.48438C4.72656 3.55398 7.08617 1.17188 10 1.17188C12.9078 1.17188 15.2734 3.55504 15.2734 6.48438C15.2734 7.57758 14.9406 8.62645 14.3107 9.5184C14.2543 9.59285 14.5487 9.13535 10 16.273L5.75191 9.60723ZM10 18.8281C5.39086 18.8281 2.38281 17.4733 2.38281 16.4844C2.38281 15.8197 3.92844 14.7268 7.35344 14.3007L9.50586 17.6782C9.55879 17.7613 9.63181 17.8297 9.71817 17.8771C9.80454 17.9244 9.90145 17.9493 9.99996 17.9493C10.0985 17.9493 10.1954 17.9244 10.2817 17.8771C10.3681 17.8297 10.4411 17.7613 10.4941 17.6782L12.6464 14.3007C16.0715 14.7268 17.6172 15.8197 17.6172 16.4844C17.6172 17.4649 14.6362 18.8281 10 18.8281Z" fill="currentColor"></path>
    <path d="M10 3.55469C8.38457 3.55469 7.07031 4.86895 7.07031 6.48438C7.07031 8.0998 8.38457 9.41406 10 9.41406C11.6154 9.41406 12.9297 8.0998 12.9297 6.48438C12.9297 4.86895 11.6154 3.55469 10 3.55469ZM10 8.24219C9.03074 8.24219 8.24219 7.45363 8.24219 6.48438C8.24219 5.51512 9.03074 4.72656 10 4.72656C10.9693 4.72656 11.7578 5.51512 11.7578 6.48438C11.7578 7.45363 10.9693 8.24219 10 8.24219Z" fill="currentColor"></path>
  </symbol>
  <symbol fill="none" xmlns="http://www.w3.org/2000/svg" viewBox="0 0 20 20" id="phone">
    <path d="M18.4391 9.4676C18.3391 9.4676 18.2384 9.45791 18.1384 9.43822L15.5919 8.94135C15.2368 8.87171 14.917 8.68096 14.6869 8.40168C14.4569 8.1224 14.331 7.77192 14.3306 7.4101V5.90447C14.2134 5.6801 12.8178 5.21916 10 5.21916C7.21031 5.21916 5.81469 5.67072 5.66937 5.91916V7.41041C5.66897 7.77218 5.543 8.12258 5.31297 8.4018C5.08295 8.68101 4.76313 8.87172 4.40812 8.94135L1.86125 9.43822C1.63542 9.48277 1.40251 9.47652 1.1794 9.41993C0.956281 9.36334 0.748549 9.25783 0.57125 9.11103C0.39326 8.96504 0.249952 8.78129 0.151695 8.57311C0.0534387 8.36492 0.00269126 8.13749 0.003125 7.90729V6.11541C0.00113635 6.09944 9.28689e-05 6.08337 0 6.06729C0 2.69229 5.18375 1.15479 10 1.15479C14.8159 1.15479 20 2.69229 20 6.06729C20 6.08385 19.9994 6.09978 19.9969 6.11572V7.9076C19.9972 8.13776 19.9464 8.36512 19.8482 8.57328C19.75 8.78144 19.6069 8.96522 19.4291 9.11135C19.1505 9.34162 18.8005 9.46759 18.4391 9.4676ZM10 4.44978C11.5331 4.44978 15.1 4.59197 15.1 5.90447V7.41041C15.1 7.78791 15.3688 8.11416 15.7391 8.18635L18.2859 8.68322C18.4004 8.70565 18.5185 8.70244 18.6316 8.67382C18.7447 8.6452 18.8501 8.59188 18.9401 8.5177C19.0302 8.44351 19.1027 8.3503 19.1524 8.24475C19.2022 8.13921 19.2279 8.02396 19.2278 7.90729V6.06666C19.2278 6.05197 19.2284 6.03697 19.23 6.02228C19.2016 4.4926 17.7125 3.54947 16.4619 3.02604C14.7641 2.3151 12.4688 1.92354 10 1.92354C5.43781 1.92354 0.820312 3.33135 0.769688 6.02228C0.771563 6.03697 0.772187 6.05197 0.772187 6.06697V7.9076C0.772187 8.14447 0.876875 8.36666 1.06031 8.5176C1.15045 8.59159 1.2558 8.6448 1.36885 8.67343C1.48191 8.70206 1.59988 8.7054 1.71438 8.68322L4.26094 8.18635C4.44081 8.15097 4.60283 8.05429 4.71938 7.91278C4.83592 7.77128 4.89976 7.59373 4.9 7.41041V5.90447C4.9 4.59197 8.46656 4.44978 10 4.44978ZM17.4038 18.8451H2.59562C2.26031 18.8447 1.93886 18.7113 1.70181 18.4741C1.46477 18.2369 1.3315 17.9154 1.33125 17.5801V14.2885C1.33125 13.9142 1.46875 13.5551 1.71875 13.2773L6.19469 8.30166C6.31752 8.16545 6.38545 7.98851 6.38531 7.8051V6.99604C6.38556 6.73722 6.48844 6.48907 6.67139 6.306C6.85435 6.12293 7.10243 6.01989 7.36125 6.01947H12.6381C12.897 6.01972 13.1453 6.12269 13.3284 6.30578C13.5115 6.48886 13.6144 6.73711 13.6147 6.99604V7.80541C13.6147 7.98885 13.6825 8.16541 13.8053 8.30166L18.2812 13.2779C18.5309 13.5553 18.669 13.9153 18.6688 14.2885V17.5801C18.6685 17.9155 18.5351 18.2371 18.298 18.4743C18.0608 18.7115 17.7392 18.8449 17.4038 18.8451ZM7.36125 6.78885C7.30638 6.78901 7.25381 6.8109 7.21504 6.84973C7.17627 6.88856 7.15446 6.94117 7.15437 6.99604V7.80541C7.15458 8.17876 7.01641 8.53893 6.76656 8.81635L2.29031 13.792C2.16781 13.9285 2.10031 14.1045 2.10031 14.2885V17.5801C2.10031 17.8535 2.32281 18.076 2.59562 18.076H17.4038C17.6772 18.076 17.8997 17.8535 17.8997 17.5801V14.2885C17.8997 14.1042 17.8322 13.9285 17.7097 13.7926L13.2331 8.81635C12.9833 8.53883 12.8452 8.17852 12.8456 7.8051V6.99604C12.8455 6.94108 12.8235 6.88843 12.7846 6.8496C12.7458 6.81078 12.6931 6.78893 12.6381 6.78885H7.36125ZM10 17.077C7.92375 17.077 6.23438 15.3873 6.23438 13.3113C6.23438 11.2342 7.92375 9.54447 10 9.54447C12.0763 9.54447 13.7656 11.2342 13.7656 13.311C13.7656 15.3873 12.0763 17.077 10 17.077ZM10 10.3138C8.34781 10.3138 7.00344 11.6585 7.00344 13.311C7.00344 14.9635 8.34781 16.3079 10 16.3079C11.6525 16.3079 12.9966 14.9638 12.9966 13.311C12.9966 11.6582 11.6528 10.3138 10 10.3138ZM10 15.4904C8.79813 15.4904 7.82 14.5129 7.82 13.311C7.82 12.1092 8.79813 11.131 10 11.131C11.2019 11.131 12.18 12.1092 12.18 13.311C12.18 14.5129 11.2019 15.4904 10 15.4904ZM10 11.9004C9.62601 11.9008 9.26745 12.0496 9.00299 12.314C8.73854 12.5785 8.58979 12.937 8.58937 13.311C8.58987 13.6849 8.73867 14.0434 9.00312 14.3077C9.26758 14.5721 9.62609 14.7207 10 14.721C10.3739 14.7207 10.7324 14.5721 10.9969 14.3077C11.2613 14.0434 11.4101 13.6849 11.4106 13.311C11.4103 12.937 11.2616 12.5784 10.9971 12.3139C10.7326 12.0495 10.374 11.9007 10 11.9004Z" fill="currentColor"></path>
  </symbol>



  <symbol fill="none" xmlns="http://www.w3.org/2000/svg" viewBox="0 0 118 75" id="aus">
    <path d="M55.9115 0.0185547C56.0857 2.42874 54.6102 4.98556 51.5036 4.99473C43.0633 4.99473 34.6231 5.23299 26.192 5.48043C21.9764 5.59956 17.7609 5.77368 13.5362 5.82867C12.0149 5.82867 6.54389 4.70147 4.83018 5.37046C5.38003 5.24216 4.93099 6.76342 4.94932 7.50572C5.0182 8.82349 5.18359 10.1344 5.44418 11.428C5.84741 13.7099 6.17732 16.0101 6.54389 18.292C7.32285 23.2224 8.79829 28.8034 5.96654 33.358C5.41599 34.2967 4.53637 34.9974 3.49835 35.3243C2.46033 35.6511 1.33792 35.5807 0.348877 35.1267V75.0002H117.651V0.0185547H55.9115Z" fill="#00247D"></path>
    <path d="M29.6743 49.1846L31.6171 54.1149L36.6849 52.557L34.0456 57.1574L38.417 60.145L33.175 60.9514L33.5599 66.23L29.6743 62.6376L25.7795 66.23L26.1736 60.9514L20.9316 60.145L25.303 57.1574L22.6637 52.557L27.7315 54.1149L29.6743 49.1846Z" fill="#D9E2E9"></path>
    <path d="M89.3793 9.54004L90.3324 11.9777L92.8342 11.2079L91.5329 13.4715L93.6865 14.9561L91.1022 15.3502L91.2947 17.9528L89.3793 16.1841L87.4549 17.9528L87.6473 15.3502L85.063 14.9561L87.2257 13.4715L85.9153 11.2079L88.4171 11.9777L89.3793 9.54004Z" fill="#D9E2E9"></path>
    <path d="M102.319 25.4585L103.272 27.887L105.774 27.1172L104.473 29.3899L106.626 30.8654L104.042 31.2594L104.235 33.8621L102.319 32.0934L100.395 33.8621L100.587 31.2594L98.0029 30.8654L100.157 29.3899L98.8552 27.1172L101.357 27.887L102.319 25.4585Z" fill="#D9E2E9"></path>
    <path d="M76.2103 31.3784L77.1725 33.8069L79.6743 33.0463L78.373 35.3099L80.5266 36.7853L77.9423 37.1794L78.1347 39.782L76.2103 38.0133L74.2949 39.782L74.4782 37.1794L71.9031 36.7853L74.0567 35.3099L72.7553 33.0463L75.248 33.8069L76.2103 31.3784Z" fill="#D9E2E9"></path>
    <path d="M93.6866 40.772L94.3556 42.449L96.0693 41.9175L95.1712 43.4846L96.6558 44.4927L94.878 44.7676L95.0154 46.5638L93.6866 45.3358L92.367 46.5638L92.5044 44.7676L90.7266 44.4927L92.2112 43.4846L91.3131 41.9175L93.0268 42.449L93.6866 40.772Z" fill="#D9E2E9"></path>
    <path d="M85.7962 56.0942L86.7584 58.5228L89.2603 57.7621L87.959 60.0257L90.1125 61.5011L87.5282 61.8952L87.7207 64.507L85.7962 62.7291L83.8809 64.507L84.0733 61.8952L81.489 61.5011L83.6426 60.0257L82.3413 57.7621L84.8431 58.5228L85.7962 56.0942Z" fill="#D9E2E9"></path>
    <path d="M58.8716 23.3321C56.718 23.3321 56.1223 20.9036 57.1212 19.5839C57.0571 18.8783 56.9929 18.1726 56.9838 17.467C56.9743 17.3481 56.9743 17.2285 56.9838 17.1096C56.9838 16.0007 57.6161 14.5345 58.9632 14.4245V5.33358L56.7363 3.80315C56.4614 3.80315 58.4225 3.00586 58.1751 2.88673C57.6586 2.55605 57.1711 2.18202 56.718 1.76869L56.4797 1.57625C56.277 1.42126 56.0659 1.27747 55.8474 1.14553C55.3892 0.852272 53.5655 1.93365 53.3822 1.4846L54.2986 0H33.8074C33.7675 0.547711 33.5172 1.05872 33.1089 1.426C32.7006 1.79328 32.1661 1.98833 31.6172 1.97031C31.1768 1.97745 30.7438 1.85647 30.3709 1.62207C29.8067 1.66788 29.2397 1.66788 28.6755 1.62207C28.3469 1.79073 27.9817 1.87572 27.6124 1.8695C27.0865 1.8881 26.5724 1.71098 26.1695 1.37243C25.7666 1.03387 25.5036 0.557922 25.4313 0.0366577H7.31368C7.24577 0.555325 7.01095 1.03782 6.6447 1.41129C6.43323 1.62363 6.18186 1.79205 5.90506 1.90686C5.62825 2.02168 5.33147 2.08061 5.03179 2.08028C4.84636 2.0555 4.65977 2.04021 4.47278 2.03446C4.27689 2.03225 4.08237 2.00138 3.89543 1.94282C3.61877 2.1784 3.28825 2.34208 2.93319 2.41935C2.74412 2.74946 2.46815 3.0214 2.1353 3.2056C1.80246 3.38979 1.42547 3.47919 1.04536 3.46408C0.808541 3.45947 0.573759 3.41931 0.348877 3.34494V14.6719H0.422191C0.843532 14.6817 1.25424 14.8061 1.61016 15.0318C1.96608 15.2575 2.25374 15.576 2.44222 15.953C2.6307 16.3299 2.71287 16.7511 2.67989 17.1713C2.64691 17.5914 2.50002 17.9947 2.25503 18.3376V19.9322C2.37431 20.2794 2.4211 20.6475 2.3925 21.0136C2.42008 21.3057 2.38868 21.6004 2.30015 21.8802C2.21163 22.16 2.06778 22.4191 1.87716 22.6422C1.68654 22.8653 1.45302 23.0478 1.19049 23.179C0.927956 23.3101 0.641753 23.3871 0.348877 23.4054V32.478H0.66046C1.0491 32.4832 1.42996 32.5877 1.76693 32.7814C2.1039 32.9751 2.3858 33.2517 2.58591 33.5849C2.78601 33.9181 2.89769 34.2969 2.91036 34.6853C2.92302 35.0738 2.83624 35.4591 2.65826 35.8046C3.08348 35.896 3.47492 36.1038 3.78886 36.4048C4.10281 36.7058 4.32691 37.0882 4.43612 37.5092H25.7613C25.778 36.942 26.0189 36.4045 26.4312 36.0146C26.8434 35.6247 27.3934 35.4141 27.9607 35.4289C28.4136 35.4216 28.858 35.5527 29.2345 35.8046H29.7844C30.1886 35.4791 30.695 35.307 31.214 35.3189C31.5041 35.3127 31.7926 35.365 32.0621 35.4727C32.3317 35.5803 32.5768 35.7411 32.7829 35.9455C32.989 36.1499 33.1518 36.3937 33.2617 36.6623C33.3716 36.9309 33.4263 37.2189 33.4225 37.5092H52.8965C52.8612 37.2003 52.8923 36.8875 52.9877 36.5917C53.0832 36.2958 53.2407 36.0238 53.4499 35.7939C53.659 35.5639 53.9149 35.3813 54.2004 35.2583C54.4858 35.1353 54.7943 35.0747 55.1051 35.0806C55.5303 35.0727 55.9493 35.1838 56.3148 35.4014C56.3741 35.3776 56.4354 35.3592 56.4981 35.3464C56.6854 35.0115 56.9618 34.7349 57.2966 34.5473C57.6314 34.3597 58.0116 34.2683 58.395 34.2833C58.5989 34.2829 58.802 34.3075 58.9999 34.3567V23.607C58.9999 23.607 58.9174 23.3321 58.8716 23.3321Z" fill="#00247D"></path>
    <path d="M58.9999 34.027V37.5094H52.0351L31.1956 24.377L32.5519 23.7905L31.7363 23.2773L29.6744 21.976L28.8038 21.4262L25.8712 19.575L25.4497 19.3184L24.5699 18.7594L19.887 15.8085L18.4116 14.8829L0.348877 3.50096V0.0185547H7.31368L28.1623 13.1509L26.7968 13.7374L28.6113 14.8829L29.6744 15.5519L30.545 16.1018L33.4867 17.9438L33.8991 18.2095L34.7697 18.7594L40.4607 22.3426L41.9361 23.2773L58.9999 34.027Z" fill="#F0F5F9"></path>
    <path d="M58.9999 35.1267V37.5094H56.0673L33.4867 23.2773L32.5519 22.6908L30.545 21.4262L29.6744 20.8763L26.3203 18.7594L25.8712 18.4753L25.4497 18.2095L21.6374 15.8085L20.1619 14.8829L0.348877 2.40125V0.0185547H3.27226L25.8712 14.2506L26.7968 14.8371L26.861 14.8829L28.8038 16.1018L29.6652 16.6516H29.6744L33.0285 18.7594L33.4867 19.0526L33.8991 19.3184L38.7195 22.3426L40.1949 23.2773L58.9999 35.1267Z" fill="#EF2B2D"></path>
    <path d="M58.9999 0.0185547V5.3338L40.9372 16.7158L39.4618 15.8085L34.7697 18.7594L33.8991 19.3184L33.4867 19.575L30.545 21.4262L29.6744 21.976L27.6124 23.2773L26.7968 23.7905L25.8712 24.377L5.02263 37.5094H0.348877V32.1941L17.4127 21.4445L18.8881 22.3426L24.5699 18.7594L25.4497 18.2095L25.8712 17.9438L28.8038 16.1018L29.6744 15.5519L30.7374 14.8829L32.5519 13.7374L33.4867 13.1509L54.3261 0.0185547H58.9999Z" fill="#F0F5F9"></path>
    <path d="M58.9999 0.0185547V2.40125L39.1868 14.8829L37.7114 15.8085L33.8991 18.2095L33.4867 18.4753L33.0285 18.7594L29.6744 20.8763L28.8038 21.4262L26.7968 22.6817L25.8712 23.2682V23.2773H25.8621L3.27226 37.5094H0.348877V35.1267L19.163 23.2773L20.6385 22.3426L25.4497 19.3184L25.8712 19.0526L26.3203 18.7594L29.6652 16.6516H29.6744L30.545 16.1018L32.4878 14.8829L32.5519 14.8371L33.4867 14.2506L56.0673 0.0185547H58.9999Z" fill="#EF2B2D"></path>
    <path d="M59 23.7357V14.4248L0.348991 14.4248V23.7357L59 23.7357Z" fill="#F0F5F9"></path>
    <path d="M34.1008 37.5001V0.00927734L25.239 0.00927734V37.5001H34.1008Z" fill="#F0F5F9"></path>
    <path d="M58.9999 15.8085H32.5519V0.0185547H26.7968V15.8085H0.348877V22.3426H26.7968V37.5094H32.5519V22.3426H58.9999V15.8085Z" fill="#EF2B2D"></path>
  </symbol>
  <symbol fill="none" xmlns="http://www.w3.org/2000/svg" viewBox="0 0 112 75" id="can">
    <path d="M0.206787 0H111.793V75H0.206787V0Z" fill="#D6D4D1"></path>
    <path d="M1.13037 0.917969H28.5697V74.0911H1.13037V0.917969Z" fill="#E2001A"></path>
    <path d="M28.5696 0.917969H83.4474V74.0911H28.5696V0.917969Z" fill="white"></path>
    <path d="M83.4406 0.917969H110.88V74.0911H83.4406V0.917969ZM66.9678 45.9456L76.951 37.8351C76.9829 37.8076 77.0079 37.7731 77.0242 37.7343C77.0404 37.6955 77.0474 37.6534 77.0446 37.6114C77.0379 37.5692 77.0212 37.5291 76.996 37.4946C76.9708 37.4601 76.9377 37.4321 76.8996 37.4129L74.8084 36.4296C74.2476 36.2312 74.2476 36.083 74.5436 35.0241C74.575 34.914 74.6063 34.7907 74.6376 34.6714L76.1629 29.1289C76.1746 29.0871 76.175 29.0428 76.164 29.0007C76.153 28.9586 76.131 28.9202 76.1002 28.8895C76.0708 28.8586 76.0339 28.8356 75.9931 28.8229C75.9524 28.8102 75.909 28.8081 75.8672 28.8168L70.0829 30.0331C69.635 30.1026 69.3832 29.8034 69.333 29.5981L68.5882 26.9891C68.5762 26.9454 68.552 26.9059 68.5186 26.8753C68.4851 26.8447 68.4437 26.8241 68.399 26.816C68.3559 26.8048 68.3105 26.8059 68.2681 26.8192C68.2256 26.8326 68.1877 26.8576 68.1588 26.8915L63.5643 32.0371C63.2494 32.4308 62.726 32.5951 62.5119 32.33C62.4175 32.2103 62.2857 31.9014 62.4424 31.1643L64.4026 20.7626C64.412 20.7157 64.4074 20.6672 64.3895 20.623C64.3716 20.5787 64.3411 20.5407 64.3018 20.5135C64.2643 20.4854 64.2196 20.4684 64.1728 20.4645C64.1261 20.4606 64.0792 20.4699 64.0375 20.4914L61.4028 21.856C61.0811 22.0355 60.785 22.1267 60.5452 22.1267C60.2431 22.1267 60.0218 21.9881 59.8587 21.7013L56.2287 14.9301C56.1403 14.7662 55.876 14.7662 55.7812 14.9301L52.1584 21.6957C51.8619 22.2251 51.3325 22.2597 50.6018 21.8536L47.98 20.4922C47.9371 20.4709 47.8891 20.4616 47.8414 20.4655C47.7936 20.4694 47.7478 20.4863 47.7089 20.5143C47.6714 20.5428 47.6427 20.5813 47.626 20.6253C47.6093 20.6694 47.6053 20.7172 47.6145 20.7634L49.5747 31.1679C49.7322 31.9022 49.5936 32.2111 49.4992 32.3308C49.2851 32.5955 48.7741 32.438 48.4468 32.0283L43.8591 26.8919C43.8287 26.8583 43.7899 26.8336 43.7466 26.8203C43.7033 26.807 43.6572 26.8057 43.6133 26.8164C43.5695 26.8266 43.5291 26.8478 43.4959 26.8781C43.4628 26.9085 43.438 26.9468 43.4241 26.9895L42.6801 29.6049C42.6364 29.7813 42.4347 30.0464 42.0627 30.0464C42.0186 30.0464 41.9744 30.0432 41.9495 30.0371L36.1511 28.8176C36.1083 28.8085 36.0639 28.8104 36.022 28.8231C35.9801 28.8358 35.9422 28.8589 35.9117 28.8903C35.8546 28.9566 35.8297 29.0478 35.8547 29.1297L37.3734 34.6662C37.4112 34.7919 37.4365 34.9152 37.4743 35.0253C37.7643 36.0842 37.7703 36.232 37.1842 36.4433L35.1172 37.4141C35.0785 37.4319 35.0449 37.4591 35.0196 37.4933C34.9943 37.5274 34.9781 37.5675 34.9725 37.6096C34.9668 37.6518 34.9719 37.6947 34.9873 37.7343C35.0027 37.7739 35.0279 37.809 35.0605 37.8363L45.0493 45.9536C45.3767 46.2055 45.5281 46.6494 45.4213 47.0406L44.5516 49.905C44.5367 49.9447 44.5329 49.9876 44.5406 50.0292C44.5484 50.0709 44.5673 50.1096 44.5954 50.1412C44.6217 50.1733 44.6558 50.1983 44.6943 50.2137C44.7329 50.2292 44.7747 50.2346 44.8159 50.2296C46.4419 50.0404 48.0178 49.8038 49.5361 49.5773C51.2188 49.3222 52.9646 49.0611 54.7734 48.8683C54.8171 48.8683 54.9433 48.9253 55.0823 49.0631C55.2273 49.2053 55.3028 49.3587 55.3028 49.4319L54.8493 59.9344C54.8493 60.0039 54.8682 60.0665 54.9184 60.1204C54.9626 60.1706 55.0256 60.1959 55.1011 60.1959H56.7714C56.8043 60.1962 56.837 60.1896 56.8672 60.1766C56.8975 60.1636 56.9248 60.1444 56.9473 60.1204C56.9718 60.0968 56.9912 60.0683 57.0042 60.0369C57.0172 60.0054 57.0235 59.9716 57.0228 59.9376L56.7585 49.4604C56.7585 49.3664 56.84 49.1804 56.9979 49.0257C57.1116 48.9129 57.2068 48.8679 57.2433 48.8679C59.0525 49.0603 60.7919 49.3218 62.4741 49.5769C63.9989 49.803 65.5679 50.04 67.2008 50.2292C67.2419 50.2333 67.2835 50.2274 67.3219 50.212C67.3603 50.1966 67.3944 50.1722 67.4213 50.1408C67.4479 50.1082 67.4664 50.0698 67.4753 50.0287C67.4842 49.9875 67.4832 49.9449 67.4723 49.9042L66.5958 47.0402C66.4882 46.6482 66.6336 46.2043 66.9678 45.9456Z" fill="#E2001A"></path>
  </symbol>
  <symbol fill="none" xmlns="http://www.w3.org/2000/svg" viewBox="0 0 114 75" id="jap">
    <path d="M0.750488 0H113.249V75H0.750488V0Z" fill="#F0F0F0"></path>
    <path d="M56.9998 58.5923C68.6494 58.5923 78.0933 49.1484 78.0933 37.4988C78.0933 25.8492 68.6494 16.4053 56.9998 16.4053C45.3501 16.4053 35.9062 25.8492 35.9062 37.4988C35.9062 49.1484 45.3501 58.5923 56.9998 58.5923Z" fill="#D80027"></path>
  </symbol>
  <symbol fill="none" xmlns="http://www.w3.org/2000/svg" viewBox="0 0 116 75" id="nez">
    <path d="M113.263 75H2.73696C2.2135 74.9999 1.71149 74.792 1.34135 74.4218C0.971212 74.0517 0.763243 73.5497 0.763184 73.0262L0.763184 1.97377C0.763243 1.45031 0.971212 0.948311 1.34135 0.57817C1.71149 0.208028 2.2135 5.92852e-05 2.73696 0H113.263C113.787 5.92852e-05 114.289 0.208028 114.659 0.57817C115.029 0.948311 115.237 1.45031 115.237 1.97377V73.0262C115.237 73.5497 115.029 74.0517 114.659 74.4218C114.288 74.792 113.786 74.9999 113.263 75Z" fill="#41479B"></path>
    <path d="M56.0262 0.000488281H52.5978L34.3156 11.9786V0.000488281H24.4472V11.9786L6.16491 0.000488281H2.73696C2.21352 0.000488278 1.71152 0.208408 1.34137 0.578514C0.97122 0.948621 0.763243 1.4506 0.763184 1.97404V3.53956L16.4485 13.816H0.763184V23.6845H16.4485L0.763184 33.9612V35.5267C0.763243 36.0501 0.971213 36.5521 1.34135 36.9223C1.7115 37.2924 2.2135 37.5004 2.73696 37.5004H6.16536L24.4476 25.5223V37.5004H34.316V25.5223L52.5981 37.5004H56.0265C56.5499 37.5004 57.0519 37.2924 57.4221 36.9223C57.7922 36.5521 58.0002 36.0501 58.0002 35.5267V33.9612L42.3149 23.6847H58V13.8163H42.3147L58 3.53978V1.97427C58 1.45079 57.7921 0.948749 57.4219 0.578594C57.0518 0.208439 56.5497 0.000488281 56.0262 0.000488281Z" fill="#F5F5F5"></path>
    <path d="M58 15.79H32.342V0.000488281H26.4212V15.79H0.763184V21.7109H26.4212V37.5004H32.342V21.7109H58V15.79Z" fill="#FF4B55"></path>
    <path d="M22.4736 13.8163L1.70379 0.334071C1.1511 0.683752 0.763184 1.27155 0.763184 1.97404V2.07644L18.8485 13.8163H22.4736ZM37.941 13.8163L57.6997 0.990283C57.3563 0.409195 56.7504 0.000488281 56.0262 0.000488281H55.5994L34.3158 13.8163H37.941ZM20.7679 23.6847L1.04691 36.4861C1.38698 37.0812 2.00227 37.5004 2.73696 37.5004H3.10922L24.3933 23.6847H20.7679ZM57.9687 35.6816L39.4861 23.6847H35.861L56.8495 37.3086C57.4782 37.0168 57.9095 36.4053 57.9687 35.6816ZM89.1838 62.5668C89.1038 62.5668 89.023 62.5416 88.9544 62.4935L86.6184 60.8242L84.2822 62.4935C84.2147 62.5417 84.1337 62.5675 84.0508 62.5671C83.9678 62.5668 83.8871 62.5403 83.82 62.4914C83.7529 62.4426 83.7029 62.3739 83.6771 62.295C83.6513 62.2162 83.6509 62.1312 83.6761 62.0521L84.5425 59.3151L82.2336 57.6114C82.167 57.5621 82.1175 57.4933 82.0921 57.4145C82.0667 57.3357 82.0667 57.2509 82.092 57.172C82.1177 57.0931 82.1675 57.0243 82.2344 56.9752C82.3013 56.9261 82.382 56.8992 82.465 56.8984L85.336 56.8751L86.2439 54.1517C86.298 53.9918 86.4492 53.8818 86.6189 53.8818C86.7886 53.8818 86.9399 53.9916 86.9938 54.1517L87.9018 56.8751L90.7728 56.8984C90.9434 56.9004 91.0927 57.0102 91.1457 57.172C91.1711 57.2509 91.171 57.3357 91.1457 57.4145C91.1203 57.4933 91.0708 57.5621 91.0042 57.6114L88.6953 59.3151L89.5617 62.0521C89.5864 62.1313 89.5857 62.2162 89.5598 62.295C89.5339 62.3738 89.4839 62.4425 89.417 62.4915C89.3468 62.5416 89.265 62.5668 89.1838 62.5668Z" fill="#FF4B55"></path>
    <path d="M86.6183 54.2763L87.6157 57.2674L90.7686 57.2917L88.2321 59.1647L89.1832 62.1707L86.6183 60.3376L84.0531 62.1712L85.0042 59.1651L82.4677 57.2922L85.6206 57.2678L86.6183 54.2763ZM86.6183 53.4868C86.4526 53.4868 86.2911 53.539 86.1567 53.6358C86.0223 53.7327 85.9217 53.8694 85.8693 54.0265L85.0503 56.4824L82.4617 56.5025C82.2959 56.5035 82.1346 56.5568 82.0008 56.6547C81.867 56.7525 81.7674 56.8901 81.7161 57.0478C81.6649 57.2054 81.6646 57.3752 81.7153 57.5331C81.766 57.6909 81.8651 57.8288 81.9986 57.9271L84.0811 59.4649L83.3003 61.9331C83.2505 62.091 83.2516 62.2607 83.3034 62.418C83.3553 62.5753 83.4553 62.7123 83.5894 62.8096C83.7234 62.9069 83.8846 62.9597 84.0503 62.9603C84.2159 62.961 84.3776 62.9095 84.5123 62.8133L86.6185 61.3079L88.7246 62.8133C88.8594 62.9095 89.0211 62.961 89.1867 62.9604C89.3524 62.9598 89.5137 62.9071 89.6478 62.8099C89.7818 62.7125 89.8817 62.5754 89.9335 62.418C89.9853 62.2607 89.9864 62.091 89.9364 61.9331L89.1557 59.4649L91.2381 57.9271C91.3716 57.8288 91.4707 57.6909 91.5214 57.5331C91.5721 57.3752 91.5719 57.2054 91.5206 57.0478C91.4694 56.8901 91.3698 56.7525 91.2359 56.6547C91.1021 56.5568 90.9409 56.5035 90.7751 56.5025L88.1865 56.4824L87.3675 54.0265C87.3149 53.8694 87.2143 53.7327 87.0799 53.6359C86.9454 53.539 86.784 53.4869 86.6183 53.4868Z" fill="#F5F5F5"></path>
    <path d="M89.1836 30.7463C89.1027 30.7463 89.0228 30.7211 88.9542 30.673L86.6182 29.0022L84.282 30.6732C84.2149 30.7206 84.1348 30.7462 84.0526 30.7465C83.9717 30.7465 83.8899 30.7213 83.8206 30.6712C83.7537 30.6222 83.7038 30.5535 83.6779 30.4747C83.6519 30.3959 83.6512 30.311 83.6759 30.2319L84.5423 27.4948L82.2334 25.7891C82.1669 25.7398 82.1175 25.6709 82.0921 25.5921C82.0667 25.5133 82.0666 25.4286 82.0918 25.3497C82.1176 25.2709 82.1674 25.2021 82.2343 25.153C82.3012 25.1039 82.3818 25.077 82.4648 25.0761L85.3358 25.0548L86.2437 22.3314C86.2978 22.1715 86.449 22.0615 86.6187 22.0615C86.7884 22.0615 86.9397 22.1713 86.9936 22.3314L87.9016 25.0548L90.7726 25.0761C90.9423 25.0781 91.0925 25.1879 91.1455 25.3497C91.1707 25.4286 91.1706 25.5133 91.1452 25.5921C91.1198 25.6709 91.0705 25.7397 91.004 25.7891L88.6951 27.4948L89.5615 30.2319C89.5862 30.311 89.5855 30.3959 89.5596 30.4747C89.5337 30.5535 89.4837 30.6222 89.4168 30.6712C89.3466 30.7213 89.2648 30.7463 89.1836 30.7463Z" fill="#FF4B55"></path>
    <path d="M86.6183 22.456L87.6157 25.447L90.7686 25.4714L88.2321 27.3444L89.1832 30.3506L86.6183 28.517L84.0531 30.3506L85.0042 27.3444L82.4677 25.4714L85.6206 25.447L86.6183 22.456ZM86.6183 21.6665C86.4526 21.6665 86.2911 21.7187 86.1567 21.8155C86.0223 21.9124 85.9217 22.0491 85.8693 22.2062L85.0503 24.662L82.4617 24.6822C82.2959 24.6832 82.1346 24.7365 82.0008 24.8344C81.867 24.9322 81.7674 25.0698 81.7161 25.2274C81.6649 25.3851 81.6646 25.5549 81.7153 25.7128C81.766 25.8706 81.8651 26.0085 81.9986 26.1068L84.0811 27.6446L83.3003 30.1127C83.2505 30.2707 83.2516 30.4403 83.3034 30.5976C83.3553 30.755 83.4553 30.892 83.5894 30.9893C83.7234 31.0866 83.8846 31.1394 84.0503 31.14C84.2159 31.1407 84.3776 31.0892 84.5123 30.993L86.6185 29.4876L88.7246 30.993C88.8594 31.0892 89.0211 31.1406 89.1867 31.14C89.3524 31.1394 89.5137 31.0868 89.6478 30.9896C89.7818 30.8922 89.8817 30.7551 89.9335 30.5977C89.9853 30.4404 89.9864 30.2707 89.9364 30.1127L89.1557 27.6446L91.2381 26.1068C91.5116 25.9049 91.6249 25.551 91.5198 25.2277C91.4148 24.9044 91.1149 24.6846 90.7751 24.6822L88.1865 24.662L87.3675 22.2062C87.315 22.0491 87.2144 21.9124 87.0799 21.8155C86.9455 21.7187 86.784 21.6665 86.6183 21.6665Z" fill="#F5F5F5"></path>
    <path d="M103 40.6147C102.919 40.6147 102.839 40.5894 102.77 40.5414L100.434 38.8703L98.0982 40.5414C98.031 40.5887 97.951 40.6143 97.8688 40.6147C97.7879 40.6147 97.706 40.5894 97.6367 40.5394C97.5698 40.4903 97.5199 40.4216 97.494 40.3429C97.4681 40.2641 97.4674 40.1792 97.4921 40.1L98.3584 37.3629L96.0495 35.6572C95.983 35.6079 95.9336 35.5391 95.9083 35.4603C95.8829 35.3815 95.8828 35.2967 95.908 35.2179C95.9338 35.139 95.9836 35.0702 96.0505 35.0212C96.1174 34.9721 96.198 34.9452 96.2809 34.9442L99.1519 34.923L100.06 32.1996C100.114 32.0397 100.265 31.9297 100.435 31.9297C100.605 31.9297 100.756 32.0395 100.81 32.1996L101.718 34.923L104.589 34.9442C104.758 34.9462 104.909 35.056 104.962 35.2179C104.987 35.2967 104.987 35.3815 104.961 35.4603C104.936 35.539 104.887 35.6079 104.82 35.6572L102.511 37.3629L103.378 40.1C103.402 40.1792 103.402 40.2641 103.376 40.3429C103.35 40.4217 103.3 40.4904 103.233 40.5394C103.165 40.5881 103.083 40.6145 103 40.6147Z" fill="#FF4B55"></path>
    <path d="M100.434 32.3241L101.432 35.3152L104.585 35.3396L102.048 37.2125L102.999 40.2188L100.434 38.3852L97.8688 40.2188L98.8199 37.2127L96.2834 35.3398L99.4363 35.3154L100.434 32.3241ZM100.434 31.5347C100.268 31.5347 100.107 31.5868 99.9726 31.6837C99.8382 31.7805 99.7376 31.9172 99.6852 32.0744L98.8662 34.5302L96.2776 34.5503C96.1118 34.5514 95.9505 34.6046 95.8167 34.7025C95.6829 34.8004 95.5833 34.9379 95.5321 35.0956C95.4808 35.2533 95.4805 35.4231 95.5312 35.5809C95.5819 35.7388 95.6811 35.8767 95.8145 35.975L97.897 37.5128L97.1162 39.9809C97.0789 40.0992 97.0699 40.2246 97.09 40.347C97.1102 40.4695 97.1589 40.5854 97.2322 40.6855C97.3055 40.7856 97.4014 40.867 97.512 40.9231C97.6227 40.9792 97.745 41.0084 97.869 41.0085C98.0298 41.0085 98.1908 40.9593 98.328 40.8611L100.434 39.3558L102.54 40.8611C102.675 40.9574 102.837 41.0088 103.003 41.0082C103.168 41.0076 103.33 40.955 103.464 40.8578C103.598 40.7604 103.698 40.6233 103.749 40.4659C103.801 40.3085 103.802 40.1389 103.752 39.9809L102.972 37.5128L105.054 35.975C105.327 35.7731 105.441 35.4192 105.336 35.0959C105.231 34.7726 104.931 34.5528 104.591 34.5503L102.002 34.5302L101.183 32.0744C101.131 31.9172 101.03 31.7805 100.896 31.6837C100.761 31.5868 100.6 31.5347 100.434 31.5347Z" fill="#F5F5F5"></path>
    <path d="M75.3679 44.562C75.287 44.562 75.2072 44.5367 75.1386 44.4886L72.8028 42.8176L70.4666 44.4886C70.3995 44.536 70.3194 44.5616 70.2372 44.562C70.1563 44.562 70.0744 44.5367 70.0051 44.4866C69.9383 44.4376 69.8884 44.3689 69.8624 44.2901C69.8365 44.2114 69.8358 44.1265 69.8605 44.0473L70.7268 41.3102L68.4179 39.6045C68.3514 39.5552 68.3021 39.4863 68.2767 39.4075C68.2513 39.3288 68.2512 39.244 68.2764 39.1652C68.3022 39.0863 68.352 39.0175 68.4189 38.9684C68.4858 38.9193 68.5664 38.8924 68.6493 38.8915L71.5203 38.8703L72.4283 36.1468C72.4824 35.987 72.6335 35.877 72.8032 35.877C72.9729 35.877 73.1243 35.9867 73.1782 36.1468L74.0862 38.8703L76.9572 38.8915C77.1269 38.8935 77.2771 39.0033 77.3301 39.1652C77.3553 39.244 77.3552 39.3287 77.3298 39.4075C77.3044 39.4863 77.255 39.5552 77.1886 39.6045L74.8797 41.3102L75.746 44.0473C75.7708 44.1265 75.7701 44.2114 75.7442 44.2902C75.7182 44.3689 75.6683 44.4376 75.6014 44.4866C75.5333 44.5355 75.4517 44.5618 75.3679 44.562Z" fill="#FF4B55"></path>
    <path d="M72.8023 36.2719L73.7997 39.263L76.9527 39.2873L74.4162 41.1603L75.3673 44.1665L72.8021 42.333L70.237 44.1665L71.1881 41.1603L68.6516 39.2873L71.8045 39.263L72.8023 36.2719ZM72.8023 35.4824C72.6367 35.4824 72.4752 35.5346 72.3408 35.6314C72.2063 35.7283 72.1058 35.865 72.0533 36.0221L71.2344 38.478L68.6457 38.4981C68.48 38.4992 68.3187 38.5524 68.1849 38.6503C68.0511 38.7482 67.9515 38.8857 67.9002 39.0434C67.849 39.201 67.8487 39.3708 67.8994 39.5287C67.9501 39.6865 68.0492 39.8244 68.1827 39.9227L70.2651 41.4605L69.4844 43.9287C69.447 44.047 69.438 44.1724 69.4582 44.2948C69.4783 44.4172 69.5271 44.5332 69.6004 44.6332C69.6737 44.7333 69.7695 44.8147 69.8802 44.8708C69.9908 44.9269 70.1131 44.9562 70.2372 44.9562C70.398 44.9562 70.5589 44.907 70.6962 44.8089L72.8023 43.3035L74.9085 44.8089C75.0433 44.9051 75.205 44.9566 75.3706 44.956C75.5362 44.9554 75.6975 44.9027 75.8316 44.8055C75.9656 44.7081 76.0656 44.571 76.1174 44.4137C76.1692 44.2563 76.1702 44.0866 76.1203 43.9287L75.3395 41.4605L77.422 39.9227C77.5553 39.8243 77.6542 39.6865 77.7048 39.5287C77.7553 39.3709 77.755 39.2012 77.7037 39.0436C77.6525 38.886 77.5531 38.7485 77.4194 38.6506C77.2857 38.5527 77.1246 38.4993 76.9589 38.4981L74.3703 38.478L73.5513 36.0221C73.4989 35.865 73.3983 35.7283 73.2639 35.6314C73.1295 35.5346 72.968 35.4824 72.8023 35.4824Z" fill="#F5F5F5"></path>
  </symbol>
  <symbol fill="none" xmlns="http://www.w3.org/2000/svg" viewBox="0 0 114 75" id="uk">
    <path d="M0.750977 0.000976562H113.249V75.0003H0.750977V0.000976562Z" fill="#F0F0F0"></path>
    <path d="M64.031 0H49.9688V30.468H0.750977V44.5302H49.9688V74.9982H64.031V44.5302H113.249V30.468H64.031V0Z" fill="#D80027"></path>
    <path d="M87.2742 50.5425L113.249 64.973V50.5425H87.2742ZM69.2278 50.5425L113.249 74.9984V68.0829L81.6761 50.5425H69.2278ZM101.523 74.9984L69.2278 57.055V74.9984H101.523Z" fill="#0052B4"></path>
    <path d="M69.2278 50.5425L113.249 74.9984V68.0829L81.6761 50.5425H69.2278Z" fill="#F0F0F0"></path>
    <path d="M69.2278 50.5425L113.249 74.9984V68.0829L81.6761 50.5425H69.2278Z" fill="#D80027"></path>
    <path d="M20.6009 50.542L0.750977 61.5699V50.542H20.6009ZM44.7719 53.6519V74.9982H6.35192L44.7719 53.6519Z" fill="#0052B4"></path>
    <path d="M32.3235 50.5425L0.750977 68.0829V74.9984L44.7719 50.5425H32.3235Z" fill="#D80027"></path>
    <path d="M26.7254 24.456L0.750977 10.0255V24.456H26.7254ZM44.7719 24.456L0.750977 0V6.91554L32.3235 24.456H44.7719ZM12.4767 0L44.7719 17.9434V0H12.4767Z" fill="#0052B4"></path>
    <path d="M44.7719 24.456L0.750977 0V6.91554L32.3235 24.456H44.7719Z" fill="#F0F0F0"></path>
    <path d="M44.7719 24.456L0.750977 0V6.91554L32.3235 24.456H44.7719Z" fill="#D80027"></path>
    <path d="M93.3988 24.4567L113.249 13.4288V24.4567H93.3988ZM69.2278 21.3467V0.000488281H107.648L69.2278 21.3467Z" fill="#0052B4"></path>
    <path d="M81.6761 24.456L113.249 6.91554V0L69.2278 24.456H81.6761Z" fill="#D80027"></path>
  </symbol>
  <symbol fill="none" xmlns="http://www.w3.org/2000/svg" viewBox="0 0 116 75" id="usa">
    <path d="M113.263 75H2.73696C2.2135 74.9999 1.71149 74.792 1.34135 74.4218C0.971212 74.0517 0.763243 73.5497 0.763184 73.0262L0.763184 1.97377C0.763243 1.45031 0.971212 0.948311 1.34135 0.57817C1.71149 0.208028 2.2135 5.92852e-05 2.73696 0H113.263C113.787 5.92852e-05 114.289 0.208028 114.659 0.57817C115.029 0.948311 115.237 1.45031 115.237 1.97377V73.0262C115.237 73.5497 115.029 74.0517 114.659 74.4218C114.288 74.792 113.786 74.9999 113.263 75Z" fill="#F5F5F5"></path>
    <path d="M115.237 5.76951H0.763184V1.97377C0.763243 1.45031 0.971212 0.948311 1.34135 0.57817C1.71149 0.208028 2.2135 5.92852e-05 2.73696 0H113.263C113.787 5.92852e-05 114.289 0.208028 114.659 0.57817C115.029 0.948311 115.237 1.45031 115.237 1.97377L115.237 5.76951ZM0.763184 23.0769H115.237V28.8462H0.763184V23.0769ZM0.763184 11.5379H115.237V17.3072H0.763184V11.5379ZM115.237 40.3848H2.73696C2.2135 40.3847 1.71149 40.1767 1.34135 39.8066C0.971212 39.4364 0.763243 38.9344 0.763184 38.411L0.763184 34.6152H115.237V40.3848ZM0.763184 57.6939H115.237V63.4632H0.763184V57.6939ZM113.263 75H2.73696C2.2135 74.9999 1.71149 74.792 1.34135 74.4218C0.971212 74.0517 0.763243 73.5497 0.763184 73.0262L0.763184 69.2307H115.237V73.0265C115.237 73.5499 115.029 74.0519 114.658 74.422C114.288 74.7921 113.786 75 113.263 75ZM0.763184 46.1549H115.237V51.9242H0.763184V46.1549Z" fill="#FF4B55"></path>
    <path d="M52.0789 0.000488281H2.73696C2.21352 0.000488278 1.71152 0.208408 1.34137 0.578514C0.97122 0.948621 0.763243 1.4506 0.763184 1.97404V38.4111C0.763243 38.9346 0.971213 39.4366 1.34135 39.8067C1.7115 40.1768 2.2135 40.3848 2.73696 40.3849H52.0791C52.6026 40.3848 53.1046 40.1768 53.4747 39.8067C53.8449 39.4366 54.0528 38.9346 54.0529 38.4111V1.97404C54.0527 1.4506 53.8447 0.948654 53.4745 0.578567C53.1043 0.20848 52.6023 0.000547531 52.0789 0.000488281Z" fill="#41479B"></path>
    <path d="M6.30568 4.53011L6.74256 5.84029L8.12362 5.8508C8.30249 5.85237 8.3765 6.08042 8.23273 6.18662L7.12176 7.00716L7.53851 8.32383C7.59262 8.4942 7.39833 8.63551 7.25277 8.53132L6.12928 7.72844L5.00578 8.53154C4.86023 8.63551 4.66639 8.49443 4.72005 8.32406L5.1368 7.00739L4.02583 6.18684C3.88206 6.08042 3.95607 5.85259 4.13493 5.85102L5.516 5.84052L5.95287 4.53033C6.00922 4.36041 6.24889 4.36041 6.30568 4.53011ZM6.30568 11.3838L6.74256 12.694L8.12362 12.7045C8.30249 12.706 8.3765 12.9341 8.23273 13.0403L7.12176 13.8608L7.53851 15.1775C7.59262 15.3479 7.39833 15.4892 7.25277 15.385L6.12928 14.5821L5.00578 15.3852C4.86023 15.4892 4.66639 15.3481 4.72005 15.1777L5.1368 13.8611L4.02583 13.0405C3.88206 12.9341 3.95607 12.7063 4.13493 12.7047L5.516 12.6942L5.95287 11.384C6.00922 11.2143 6.24889 11.2143 6.30568 11.3838ZM6.30568 18.2374L6.74256 19.5476L8.12362 19.5581C8.30249 19.5597 8.3765 19.7877 8.23273 19.8939L7.12176 20.7145L7.53851 22.0312C7.59262 22.2015 7.39833 22.3428 7.25277 22.2386L6.12928 21.4358L5.00578 22.2389C4.86023 22.3428 4.66639 22.2018 4.72005 22.0314L5.1368 20.7147L4.02583 19.8942C3.88206 19.7877 3.95607 19.5599 4.13493 19.5584L5.516 19.5478L5.95287 18.2377C6.00922 18.068 6.24889 18.068 6.30568 18.2374ZM6.30568 25.0913L6.74256 26.4015L8.12362 26.412C8.30249 26.4136 8.3765 26.6416 8.23273 26.7478L7.12176 27.5684L7.53851 28.885C7.59262 29.0554 7.39833 29.1967 7.25277 29.0925L6.12928 28.2897L5.00578 29.0928C4.86023 29.1967 4.66639 29.0556 4.72005 28.8853L5.1368 27.5686L4.02583 26.7481C3.88206 26.6416 3.95607 26.4138 4.13493 26.4122L5.516 26.4017L5.95287 25.0915C6.00922 24.9216 6.24889 24.9216 6.30568 25.0913ZM6.30568 31.945L6.74256 33.2552L8.12362 33.2657C8.30249 33.2672 8.3765 33.4953 8.23273 33.6015L7.12176 34.422L7.53851 35.7387C7.59262 35.9091 7.39833 36.0504 7.25277 35.9462L6.12928 35.1433L5.00578 35.9464C4.86023 36.0504 4.66639 35.9093 4.72005 35.7389L5.1368 34.4223L4.02583 33.6017C3.88206 33.4953 3.95607 33.2675 4.13493 33.2659L5.516 33.2554L5.95287 31.9452C6.00922 31.7751 6.24889 31.7751 6.30568 31.945ZM11.6254 7.89031L12.0622 9.2005L13.4433 9.211C13.6222 9.21257 13.6962 9.44062 13.5524 9.54682L12.4414 10.3674L12.8582 11.684C12.9123 11.8544 12.718 11.9957 12.5724 11.8915L11.449 11.0884L10.3255 11.8915C10.1799 11.9955 9.98606 11.8544 10.0397 11.684L10.4565 10.3674L9.3455 9.54682C9.20173 9.4404 9.27574 9.21257 9.4546 9.211L10.8357 9.2005L11.2725 7.89031C11.3287 7.72084 11.5688 7.72084 11.6254 7.89031ZM11.6254 14.7442L12.0622 16.0544L13.4433 16.0649C13.6222 16.0665 13.6962 16.2945 13.5524 16.4007L12.4414 17.2213L12.8582 18.5379C12.9123 18.7083 12.718 18.8496 12.5724 18.7454L11.449 17.9423L10.3255 18.7454C10.1799 18.8494 9.98606 18.7085 10.0397 18.5379L10.4565 17.2213L9.3455 16.4007C9.20173 16.2943 9.27574 16.0665 9.4546 16.0649L10.8357 16.0544L11.2725 14.7442C11.3287 14.5745 11.5688 14.5745 11.6254 14.7442ZM11.6254 21.5979L12.0622 22.908L13.4433 22.9186C13.6222 22.9201 13.6962 23.1482 13.5524 23.2544L12.4414 24.0749L12.8582 25.3916C12.9123 25.562 12.718 25.7033 12.5724 25.5991L11.449 24.796L10.3255 25.5991C10.1799 25.703 9.98606 25.562 10.0397 25.3916L10.4565 24.0749L9.3455 23.2544C9.20173 23.148 9.27574 22.9201 9.4546 22.9186L10.8357 22.908L11.2725 21.5979C11.3287 21.4282 11.5688 21.4282 11.6254 21.5979ZM11.6254 28.4515L12.0622 29.7617L13.4433 29.7722C13.6222 29.7738 13.6962 30.0018 13.5524 30.108L12.4414 30.9286L12.8582 32.2453C12.9123 32.4156 12.718 32.5569 12.5724 32.4527L11.449 31.6496L10.3255 32.4527C10.1799 32.5567 9.98606 32.4156 10.0397 32.2453L10.4565 30.9286L9.3455 30.108C9.20173 30.0016 9.27574 29.7738 9.4546 29.7722L10.8357 29.7617L11.2725 28.4515C11.3287 28.282 11.5688 28.282 11.6254 28.4515ZM16.945 4.53011L17.3819 5.84029L18.763 5.8508C18.9418 5.85237 19.0158 6.08042 18.8721 6.18662L17.7611 7.00716L18.1779 8.32383C18.232 8.4942 18.0377 8.63551 17.8921 8.53132L16.7686 7.72821L15.6451 8.53132C15.4996 8.63528 15.3057 8.4942 15.3594 8.32383L15.7761 7.00716L14.6652 6.18662C14.5214 6.08019 14.5954 5.85237 14.7743 5.8508L16.1553 5.84029L16.5922 4.53011C16.6486 4.36041 16.8885 4.36041 16.945 4.53011ZM16.945 11.3838L17.3819 12.694L18.763 12.7045C18.9418 12.706 19.0158 12.9341 18.8721 13.0403L17.7611 13.8608L18.1779 15.1775C18.232 15.3479 18.0377 15.4892 17.8921 15.385L16.7686 14.5819L15.6451 15.385C15.4996 15.4889 15.3057 15.3479 15.3594 15.1775L15.7761 13.8608L14.6652 13.0403C14.5214 12.9339 14.5954 12.706 14.7743 12.7045L16.1553 12.694L16.5922 11.3838C16.6486 11.2143 16.8885 11.2143 16.945 11.3838ZM16.945 18.2374L17.3819 19.5476L18.763 19.5581C18.9418 19.5597 19.0158 19.7877 18.8721 19.8939L17.7611 20.7145L18.1779 22.0312C18.232 22.2015 18.0377 22.3428 17.8921 22.2386L16.7686 21.4355L15.6451 22.2386C15.4996 22.3426 15.3057 22.2015 15.3594 22.0312L15.7761 20.7145L14.6652 19.8939C14.5214 19.7875 14.5954 19.5597 14.7743 19.5581L16.1553 19.5476L16.5922 18.2374C16.6486 18.068 16.8885 18.068 16.945 18.2374ZM16.945 25.0913L17.3819 26.4015L18.763 26.412C18.9418 26.4136 19.0158 26.6416 18.8721 26.7478L17.7611 27.5684L18.1779 28.885C18.232 29.0554 18.0377 29.1967 17.8921 29.0925L16.7686 28.2894L15.6451 29.0925C15.4996 29.1965 15.3057 29.0554 15.3594 28.885L15.7761 27.5684L14.6652 26.7478C14.5214 26.6414 14.5954 26.4136 14.7743 26.412L16.1553 26.4015L16.5922 25.0913C16.6486 24.9216 16.8885 24.9216 16.945 25.0913ZM16.945 31.945L17.3819 33.2552L18.763 33.2657C18.9418 33.2672 19.0158 33.4953 18.8721 33.6015L17.7611 34.422L18.1779 35.7387C18.232 35.9091 18.0377 36.0504 17.8921 35.9462L16.7686 35.1431L15.6451 35.9462C15.4996 36.0502 15.3057 35.9091 15.3594 35.7387L15.7761 34.422L14.6652 33.6015C14.5214 33.4951 14.5954 33.2672 14.7743 33.2657L16.1553 33.2552L16.5922 31.945C16.6486 31.7751 16.8885 31.7751 16.945 31.945ZM22.2649 7.89031L22.7018 9.2005L24.0829 9.211C24.2617 9.21257 24.3357 9.44062 24.192 9.54682L23.081 10.3674L23.4977 11.684C23.5519 11.8544 23.3576 11.9957 23.212 11.8915L22.0885 11.0884L20.965 11.8915C20.8195 11.9955 20.6256 11.8544 20.6793 11.684L21.096 10.3674L19.9851 9.54682C19.8413 9.4404 19.9153 9.21257 20.0942 9.211L21.4752 9.2005L21.9121 7.89031C21.9682 7.72084 22.2084 7.72084 22.2649 7.89031ZM22.2649 14.7442L22.7018 16.0544L24.0829 16.0649C24.2617 16.0665 24.3357 16.2945 24.192 16.4007L23.081 17.2213L23.4977 18.5379C23.5519 18.7083 23.3576 18.8496 23.212 18.7454L22.0885 17.9423L20.965 18.7454C20.8195 18.8494 20.6256 18.7085 20.6793 18.5379L21.096 17.2213L19.9851 16.4007C19.8413 16.2943 19.9153 16.0665 20.0942 16.0649L21.4752 16.0544L21.9121 14.7442C21.9682 14.5745 22.2084 14.5745 22.2649 14.7442ZM22.2649 21.5979L22.7018 22.908L24.0829 22.9186C24.2617 22.9201 24.3357 23.1482 24.192 23.2544L23.081 24.0749L23.4977 25.3916C23.5519 25.562 23.3576 25.7033 23.212 25.5991L22.0885 24.796L20.965 25.5991C20.8195 25.703 20.6256 25.562 20.6793 25.3916L21.096 24.0749L19.9851 23.2544C19.8413 23.148 19.9153 22.9201 20.0942 22.9186L21.4752 22.908L21.9121 21.5979C21.9682 21.4282 22.2084 21.4282 22.2649 21.5979ZM22.2649 28.4515L22.7018 29.7617L24.0829 29.7722C24.2617 29.7738 24.3357 30.0018 24.192 30.108L23.081 30.9286L23.4977 32.2453C23.5519 32.4156 23.3576 32.5569 23.212 32.4527L22.0885 31.6496L20.965 32.4527C20.8195 32.5567 20.6256 32.4156 20.6793 32.2453L21.096 30.9286L19.9851 30.108C19.8413 30.0016 19.9153 29.7738 20.0942 29.7722L21.4752 29.7617L21.9121 28.4515C21.9682 28.282 22.2084 28.282 22.2649 28.4515ZM27.5846 4.53011L28.0215 5.84029L29.4025 5.8508C29.5814 5.85237 29.6554 6.08042 29.5116 6.18662L28.4007 7.00716L28.8174 8.32383C28.8715 8.4942 28.6772 8.63551 28.5317 8.53132L27.408 7.72821L26.2845 8.53132C26.1389 8.63528 25.9451 8.4942 25.9987 8.32383L26.4155 7.00716L25.3045 6.18662C25.1607 6.08019 25.2348 5.85237 25.4136 5.8508L26.7947 5.84029L27.2316 4.53011C27.2881 4.36041 27.528 4.36041 27.5846 4.53011ZM27.5846 11.3838L28.0215 12.694L29.4025 12.7045C29.5814 12.706 29.6554 12.9341 29.5116 13.0403L28.4007 13.8608L28.8174 15.1775C28.8715 15.3479 28.6772 15.4892 28.5317 15.385L27.408 14.5819L26.2845 15.385C26.1389 15.4889 25.9451 15.3479 25.9987 15.1775L26.4155 13.8608L25.3045 13.0403C25.1607 12.9339 25.2348 12.706 25.4136 12.7045L26.7947 12.694L27.2316 11.3838C27.2881 11.2143 27.528 11.2143 27.5846 11.3838ZM27.5846 18.2374L28.0215 19.5476L29.4025 19.5581C29.5814 19.5597 29.6554 19.7877 29.5116 19.8939L28.4007 20.7145L28.8174 22.0312C28.8715 22.2015 28.6772 22.3428 28.5317 22.2386L27.408 21.4355L26.2845 22.2386C26.1389 22.3426 25.9451 22.2015 25.9987 22.0312L26.4155 20.7145L25.3045 19.8939C25.1607 19.7875 25.2348 19.5597 25.4136 19.5581L26.7947 19.5476L27.2316 18.2374C27.2881 18.068 27.528 18.068 27.5846 18.2374ZM27.5846 25.0913L28.0215 26.4015L29.4025 26.412C29.5814 26.4136 29.6554 26.6416 29.5116 26.7478L28.4007 27.5684L28.8174 28.885C28.8715 29.0554 28.6772 29.1967 28.5317 29.0925L27.408 28.2894L26.2845 29.0925C26.1389 29.1965 25.9451 29.0554 25.9987 28.885L26.4155 27.5684L25.3045 26.7478C25.1607 26.6414 25.2348 26.4136 25.4136 26.412L26.7947 26.4015L27.2316 25.0913C27.2881 24.9216 27.528 24.9216 27.5846 25.0913ZM27.5846 31.945L28.0215 33.2552L29.4025 33.2657C29.5814 33.2672 29.6554 33.4953 29.5116 33.6015L28.4007 34.422L28.8174 35.7387C28.8715 35.9091 28.6772 36.0504 28.5317 35.9462L27.408 35.1431L26.2845 35.9462C26.1389 36.0502 25.9451 35.9091 25.9987 35.7387L26.4155 34.422L25.3045 33.6015C25.1607 33.4951 25.2348 33.2672 25.4136 33.2657L26.7947 33.2552L27.2316 31.945C27.2881 31.7751 27.528 31.7751 27.5846 31.945ZM32.9043 7.89031L33.3411 9.2005L34.7222 9.211C34.9011 9.21257 34.9751 9.44062 34.8313 9.54682L33.7203 10.3674L34.1371 11.684C34.1912 11.8544 33.9969 11.9957 33.8514 11.8915L32.7279 11.0884L31.6044 11.8915C31.4588 11.9955 31.265 11.8544 31.3186 11.684L31.7354 10.3674L30.6244 9.54682C30.4806 9.4404 30.5546 9.21257 30.7335 9.211L32.1146 9.2005L32.5515 7.89031C32.608 7.72084 32.8477 7.72084 32.9043 7.89031ZM32.9043 14.7442L33.3411 16.0544L34.7222 16.0649C34.9011 16.0665 34.9751 16.2945 34.8313 16.4007L33.7203 17.2213L34.1371 18.5379C34.1912 18.7083 33.9969 18.8496 33.8514 18.7454L32.7279 17.9423L31.6044 18.7454C31.4588 18.8494 31.265 18.7085 31.3186 18.5379L31.7354 17.2213L30.6244 16.4007C30.4806 16.2943 30.5546 16.0665 30.7335 16.0649L32.1146 16.0544L32.5515 14.7442C32.608 14.5745 32.8477 14.5745 32.9043 14.7442ZM32.9043 21.5979L33.3411 22.908L34.7222 22.9186C34.9011 22.9201 34.9751 23.1482 34.8313 23.2544L33.7203 24.0749L34.1371 25.3916C34.1912 25.562 33.9969 25.7033 33.8514 25.5991L32.7279 24.796L31.6044 25.5991C31.4588 25.703 31.265 25.562 31.3186 25.3916L31.7354 24.0749L30.6244 23.2544C30.4806 23.148 30.5546 22.9201 30.7335 22.9186L32.1146 22.908L32.5515 21.5979C32.608 21.4282 32.8477 21.4282 32.9043 21.5979ZM32.9043 28.4515L33.3411 29.7617L34.7222 29.7722C34.9011 29.7738 34.9751 30.0018 34.8313 30.108L33.7203 30.9286L34.1371 32.2453C34.1912 32.4156 33.9969 32.5569 33.8514 32.4527L32.7279 31.6496L31.6044 32.4527C31.4588 32.5567 31.265 32.4156 31.3186 32.2453L31.7354 30.9286L30.6244 30.108C30.4806 30.0016 30.5546 29.7738 30.7335 29.7722L32.1146 29.7617L32.5515 28.4515C32.608 28.282 32.8477 28.282 32.9043 28.4515ZM38.2242 4.53011L38.661 5.84029L40.0421 5.8508C40.221 5.85237 40.295 6.08042 40.1512 6.18662L39.0402 7.00716L39.457 8.32383C39.5111 8.4942 39.3168 8.63551 39.1712 8.53132L38.0478 7.72821L36.9243 8.53132C36.7787 8.63528 36.5849 8.4942 36.6385 8.32383L37.0553 7.00716L35.9443 6.18662C35.8005 6.08019 35.8745 5.85237 36.0534 5.8508L37.4345 5.84029L37.8713 4.53011C37.9275 4.36041 38.1676 4.36041 38.2242 4.53011ZM38.2242 11.3838L38.661 12.694L40.0421 12.7045C40.221 12.706 40.295 12.9341 40.1512 13.0403L39.0402 13.8608L39.457 15.1775C39.5111 15.3479 39.3168 15.4892 39.1712 15.385L38.0478 14.5819L36.9243 15.385C36.7787 15.4889 36.5849 15.3479 36.6385 15.1775L37.0553 13.8608L35.9443 13.0403C35.8005 12.9339 35.8745 12.706 36.0534 12.7045L37.4345 12.694L37.8713 11.3838C37.9275 11.2143 38.1676 11.2143 38.2242 11.3838ZM38.2242 18.2374L38.661 19.5476L40.0421 19.5581C40.221 19.5597 40.295 19.7877 40.1512 19.8939L39.0402 20.7145L39.457 22.0312C39.5111 22.2015 39.3168 22.3428 39.1712 22.2386L38.0478 21.4355L36.9243 22.2386C36.7787 22.3426 36.5849 22.2015 36.6385 22.0312L37.0553 20.7145L35.9443 19.8939C35.8005 19.7875 35.8745 19.5597 36.0534 19.5581L37.4345 19.5476L37.8713 18.2374C37.9275 18.068 38.1676 18.068 38.2242 18.2374ZM38.2242 25.0913L38.661 26.4015L40.0421 26.412C40.221 26.4136 40.295 26.6416 40.1512 26.7478L39.0402 27.5684L39.457 28.885C39.5111 29.0554 39.3168 29.1967 39.1712 29.0925L38.0478 28.2894L36.9243 29.0925C36.7787 29.1965 36.5849 29.0554 36.6385 28.885L37.0553 27.5684L35.9443 26.7478C35.8005 26.6414 35.8745 26.4136 36.0534 26.412L37.4345 26.4015L37.8713 25.0913C37.9275 24.9216 38.1676 24.9216 38.2242 25.0913ZM38.2242 31.945L38.661 33.2552L40.0421 33.2657C40.221 33.2672 40.295 33.4953 40.1512 33.6015L39.0402 34.422L39.457 35.7387C39.5111 35.9091 39.3168 36.0504 39.1712 35.9462L38.0478 35.1431L36.9243 35.9462C36.7787 36.0502 36.5849 35.9091 36.6385 35.7387L37.0553 34.422L35.9443 33.6015C35.8005 33.4951 35.8745 33.2672 36.0534 33.2657L37.4345 33.2552L37.8713 31.945C37.9275 31.7751 38.1676 31.7751 38.2242 31.945ZM43.5438 7.89031L43.9807 9.2005L45.3618 9.211C45.5406 9.21257 45.6146 9.44062 45.4709 9.54682L44.3599 10.3674L44.7767 11.684C44.8308 11.8544 44.6365 11.9957 44.4909 11.8915L43.3674 11.0884L42.2439 11.8915C42.0984 11.9955 41.9045 11.8544 41.9582 11.684L42.3749 10.3674L41.264 9.54682C41.1202 9.4404 41.1942 9.21257 41.3731 9.211L42.7541 9.2005L43.191 7.89031C43.2474 7.72084 43.4875 7.72084 43.5438 7.89031ZM43.5438 14.7442L43.9807 16.0544L45.3618 16.0649C45.5406 16.0665 45.6146 16.2945 45.4709 16.4007L44.3599 17.2213L44.7767 18.5379C44.8308 18.7083 44.6365 18.8496 44.4909 18.7454L43.3674 17.9423L42.2439 18.7454C42.0984 18.8494 41.9045 18.7085 41.9582 18.5379L42.3749 17.2213L41.264 16.4007C41.1202 16.2943 41.1942 16.0665 41.3731 16.0649L42.7541 16.0544L43.191 14.7442C43.2474 14.5745 43.4875 14.5745 43.5438 14.7442ZM43.5438 21.5979L43.9807 22.908L45.3618 22.9186C45.5406 22.9201 45.6146 23.1482 45.4709 23.2544L44.3599 24.0749L44.7767 25.3916C44.8308 25.562 44.6365 25.7033 44.4909 25.5991L43.3674 24.796L42.2439 25.5991C42.0984 25.703 41.9045 25.562 41.9582 25.3916L42.3749 24.0749L41.264 23.2544C41.1202 23.148 41.1942 22.9201 41.3731 22.9186L42.7541 22.908L43.191 21.5979C43.2474 21.4282 43.4875 21.4282 43.5438 21.5979ZM43.5438 28.4515L43.9807 29.7617L45.3618 29.7722C45.5406 29.7738 45.6146 30.0018 45.4709 30.108L44.3599 30.9286L44.7767 32.2453C44.8308 32.4156 44.6365 32.5569 44.4909 32.4527L43.3674 31.6496L42.2439 32.4527C42.0984 32.5567 41.9045 32.4156 41.9582 32.2453L42.3749 30.9286L41.264 30.108C41.1202 30.0016 41.1942 29.7738 41.3731 29.7722L42.7541 29.7617L43.191 28.4515C43.2474 28.282 43.4875 28.282 43.5438 28.4515ZM48.8637 4.53011L49.3006 5.84029L50.6817 5.8508C50.8605 5.85237 50.9345 6.08042 50.7908 6.18662L49.6798 7.00716L50.0966 8.32383C50.1507 8.4942 49.9564 8.63551 49.8108 8.53132L48.6873 7.72821L47.5638 8.53132C47.4183 8.63528 47.2244 8.4942 47.2781 8.32383L47.6948 7.00716L46.5839 6.18662C46.4401 6.08019 46.5141 5.85237 46.693 5.8508L48.074 5.84029L48.5109 4.53011C48.5673 4.36041 48.8069 4.36041 48.8637 4.53011ZM48.8637 11.3838L49.3006 12.694L50.6817 12.7045C50.8605 12.706 50.9345 12.9341 50.7908 13.0403L49.6798 13.8608L50.0966 15.1775C50.1507 15.3479 49.9564 15.4892 49.8108 15.385L48.6873 14.5819L47.5638 15.385C47.4183 15.4889 47.2244 15.3479 47.2781 15.1775L47.6948 13.8608L46.5839 13.0403C46.4401 12.9339 46.5141 12.706 46.693 12.7045L48.074 12.694L48.5109 11.3838C48.5673 11.2143 48.8069 11.2143 48.8637 11.3838ZM48.8637 18.2374L49.3006 19.5476L50.6817 19.5581C50.8605 19.5597 50.9345 19.7877 50.7908 19.8939L49.6798 20.7145L50.0966 22.0312C50.1507 22.2015 49.9564 22.3428 49.8108 22.2386L48.6873 21.4355L47.5638 22.2386C47.4183 22.3426 47.2244 22.2015 47.2781 22.0312L47.6948 20.7145L46.5839 19.8939C46.4401 19.7875 46.5141 19.5597 46.693 19.5581L48.074 19.5476L48.5109 18.2374C48.5673 18.068 48.8069 18.068 48.8637 18.2374ZM48.8637 25.0913L49.3006 26.4015L50.6817 26.412C50.8605 26.4136 50.9345 26.6416 50.7908 26.7478L49.6798 27.5684L50.0966 28.885C50.1507 29.0554 49.9564 29.1967 49.8108 29.0925L48.6873 28.2894L47.5638 29.0925C47.4183 29.1965 47.2244 29.0554 47.2781 28.885L47.6948 27.5684L46.5839 26.7478C46.4401 26.6414 46.5141 26.4136 46.693 26.412L48.074 26.4015L48.5109 25.0913C48.5673 24.9216 48.8069 24.9216 48.8637 25.0913ZM48.8637 31.945L49.3006 33.2552L50.6817 33.2657C50.8605 33.2672 50.9345 33.4953 50.7908 33.6015L49.6798 34.422L50.0966 35.7387C50.1507 35.9091 49.9564 36.0504 49.8108 35.9462L48.6873 35.1431L47.5638 35.9462C47.4183 36.0502 47.2244 35.9091 47.2781 35.7387L47.6948 34.422L46.5839 33.6015C46.4401 33.4951 46.5141 33.2672 46.693 33.2657L48.074 33.2552L48.5109 31.945C48.5673 31.7751 48.8069 31.7751 48.8637 31.945Z" fill="#F5F5F5"></path>
  </symbol>
</svg>