<svg width="148" height="53" viewBox="0 0 148 53" fill="none" xmlns="http://www.w3.org/2000/svg">
<path d="M75.9616 20.622C75.844 29.078 66.8109 34.543 59.368 30.314C52.0389 26.1509 51.843 15.4392 59.0414 11.0278C66.4246 6.50346 75.9429 11.88 75.9616 20.5505V20.622ZM67.787 10.3825C67.7236 10.328 67.6321 10.2715 67.5537 10.2414C67.02 10.0383 66.1652 9.97054 65.5941 9.93855C65.4877 9.93291 65.2302 9.83509 65.1611 9.91222C65.1275 9.94984 65.1294 10.042 65.0827 10.1003C65.0473 10.1455 64.9651 10.1718 64.9203 10.2226C64.7692 10.39 64.3026 10.9488 64.0786 10.9036C64.004 10.8415 64.0712 10.7456 64.0394 10.6553C63.9741 10.4747 63.683 10.2245 63.6344 9.99311C63.3433 9.97618 63.0633 10.0383 62.7853 10.0834C62.7498 10.2189 62.9084 10.2151 62.9644 10.3129C63.1212 10.5876 62.8301 10.7851 62.565 10.7155C62.4792 10.6929 62.3187 10.5443 62.231 10.5198C61.9267 10.4352 61.7457 10.8058 61.477 10.9168C61.2231 11.0221 60.9824 10.9695 60.7323 11.1275C60.5606 11.2347 60.5009 11.5131 60.7043 11.5978C60.7678 11.6241 60.8144 11.5432 60.876 11.6354C60.9675 11.769 60.7808 12.1452 61.0085 12.1828C61.0477 12.1904 61.2306 12.0079 61.2493 11.9703C61.2773 11.9119 61.2679 11.8348 61.2959 11.7671C61.3799 11.562 61.5404 11.5809 61.6935 11.4548C61.8913 11.293 61.8988 10.9789 62.1712 11.0052C62.2776 11.0165 62.2832 11.0748 62.356 11.1068C62.468 11.1557 62.5482 11.214 62.6136 11.2422C62.6621 11.2629 62.7386 11.2008 62.7741 11.2573C62.7311 11.6373 62.9812 11.5451 63.1455 11.7013C63.1921 11.7445 63.4123 12.1076 63.4235 12.1697C63.4329 12.228 63.4385 12.3126 63.4086 12.3634C63.1305 12.6024 63.1007 12.1622 62.8431 12.1471C62.7237 12.2092 62.3411 12.2017 62.2739 12.2543C62.0443 12.4349 62.6229 12.6381 62.4997 12.8563C62.4866 12.8789 62.0481 13.0651 62.0219 13.0689C61.9697 13.0764 61.9155 13.0162 61.8502 13.0087C61.2997 12.9372 61.6524 13.3172 61.4658 13.5072C61.3855 13.5881 61.0477 13.6652 60.9189 13.7386C60.346 14.0678 60.2489 14.6096 59.926 15.0536C59.8514 15.1552 59.6592 15.2756 59.6237 15.3903C59.5416 15.6612 59.7562 16.013 59.4837 16.2105C59.4072 16.2256 59.4296 16.1748 59.4296 16.1221C59.4296 15.8587 59.5938 15.7271 59.396 15.4468C59.0414 14.9445 58.1698 15.554 57.8749 15.8719C57.6361 16.1296 57.2628 17.1003 57.5558 17.3712C57.8134 17.6083 58.1176 17.0665 58.2818 16.9235C58.3994 16.82 58.5953 16.6601 58.5842 16.9404C58.573 17.2207 58.3359 17.407 58.3397 17.6835C58.3826 17.8208 58.8716 17.7512 58.8697 18.1162C58.8697 18.2008 58.8193 18.2855 58.8305 18.3626C58.838 18.4172 58.8921 18.4548 58.8996 18.5094C58.9313 18.7464 58.8566 19.0512 59.2355 19.0549C59.4296 19.0549 59.9578 18.8612 60.1444 18.7652C60.3142 18.6768 60.5046 18.4755 60.6931 18.4642C60.8816 18.4529 61.0682 18.5884 61.2493 18.5903C61.3799 18.5903 61.5292 18.5207 61.6711 18.5263C62.147 18.5395 62.3765 18.9195 62.7629 19.1396C62.8375 19.181 62.942 19.2487 63.0148 19.2769C63.2966 19.386 63.4889 19.3014 63.6643 19.6193C63.7707 19.8131 63.808 20.1009 63.767 20.3172C63.7371 20.4809 63.4347 20.8872 63.6699 21.002C63.8864 21.1092 64.0712 20.7988 64.2578 20.78C64.3716 20.7687 64.4706 20.9023 64.5732 20.9136C64.6535 20.9211 64.7337 20.8741 64.8177 20.8741C65.0435 20.8741 65.2805 21.0528 65.4877 21.128C65.7882 21.2352 66.1279 21.224 66.3537 21.4648C66.9602 22.1157 66.3537 22.5897 66.0289 23.1315C65.833 23.4551 65.5866 24.0514 65.5437 24.4239C65.512 24.7023 65.6277 24.8999 65.3813 25.1162C65.2544 25.2272 65.0659 25.2723 64.9278 25.372C64.5471 25.6467 64.646 25.9383 64.4706 26.2995C64.4202 26.4029 63.7856 27.1103 63.7016 27.163C63.6008 27.225 63.4889 27.1987 63.4179 27.2683C63.2817 27.4019 63.4011 27.4771 63.4179 27.5938C63.4627 27.8929 62.9924 28.1412 62.8823 28.4384C62.8058 28.6416 62.8282 29.347 62.8543 29.586C62.8804 29.8249 63.3545 30.3968 62.7498 30.156C62.0593 29.8813 61.8577 28.0001 61.7159 27.3172C61.6393 26.9504 61.4751 26.5422 61.4434 26.1678C61.4004 25.6712 61.533 25.2291 61.2978 24.7475C61.0104 24.1587 60.2489 24.0891 60.081 23.4099C60.025 23.1804 60.0641 22.9246 59.9652 22.7082C59.7991 22.3414 59.3531 22.3583 59.2075 21.8335C59.0937 21.4271 59.1608 21.0998 59.327 20.7236C59.4539 20.4376 60.1071 19.5215 59.6965 19.275C59.48 19.1452 59.2486 19.4124 59.0041 19.2976C58.9574 19.275 58.6831 19.0775 58.6532 19.0436C58.5841 18.9609 58.586 18.8292 58.4927 18.7426C58.3882 18.6448 58.1866 18.6373 58.1306 18.5921C58.0616 18.5357 57.9589 18.2479 57.7872 18.1369C57.5689 17.9977 57.2833 18.0786 57.0631 17.8698C56.9735 17.7851 56.7066 17.3449 56.6786 17.2245C56.6096 16.9273 56.729 16.6169 56.7477 16.3403C56.7589 16.1616 56.8018 15.0573 56.4696 15.6311C56.4024 15.7477 56.3651 16.0412 56.2736 16.1089C56.0497 16.2745 56.0795 15.9566 56.1225 15.8136C56.1729 15.6424 56.3446 15.4185 56.3875 15.2266C56.5088 14.666 56.4005 14.2804 56.8205 13.7762C57.0388 13.5129 57.4718 13.3229 57.4905 12.9391C57.1769 13.1818 56.8578 13.5354 56.6077 13.8477C53.1531 18.1538 53.5469 24.4484 57.5054 28.271C62.7703 33.3559 71.3163 31.7004 74.4144 25.0993C74.6197 24.6609 74.8418 24.1624 74.9444 23.6921C74.7578 23.8972 74.6663 24.2076 74.5207 24.4578C74.252 24.9224 73.4719 26.2976 73.1191 26.5704C72.6861 26.9052 72.4081 26.766 72.339 26.2299C72.2756 25.7351 72.5742 25.5 72.6992 25.0805C72.7645 24.866 72.8709 24.1756 72.8616 23.9592C72.8429 23.5491 72.6488 23.4269 72.8056 22.9453C72.9642 22.4562 73.1789 21.9501 73.1919 21.4196C73.2031 20.9117 72.5536 20.6859 72.7291 19.9824C72.772 19.8131 72.9213 19.6005 72.8728 19.4274C72.8075 19.1941 72.7328 19.3202 72.6208 19.3427C72.3894 19.3898 72.2196 19.1057 71.9937 19.0963C71.8071 19.0888 71.6111 19.292 71.4096 19.3672C71.0606 19.4951 70.5305 19.6381 70.2207 19.3728C69.965 19.1546 69.4219 18.4661 69.2409 18.1707C69.1868 18.0823 69.1737 17.9619 69.114 17.8716C69.0449 17.7682 68.8452 17.6534 68.8098 17.5349C68.7575 17.3637 69.0169 17.0157 69.0599 16.8219C69.1681 16.3403 68.6306 15.6386 68.9124 15.1777C69.0057 15.0254 69.3044 14.8861 69.3454 14.6849C69.3678 14.5701 69.2185 14.4817 69.323 14.3086C69.4387 14.1149 70.5791 13.6652 70.8329 13.6652C71.2173 13.6652 71.1334 13.938 71.3032 14.0603C71.404 14.1337 71.5663 14.1186 71.6877 14.1713C71.8164 14.2277 72.0908 14.5419 72.2046 14.5419C72.27 14.5419 72.3297 14.429 72.423 14.4064C72.619 14.3613 72.8709 14.4779 73.0183 14.2917C72.9904 13.7838 72.5256 13.336 72.0087 13.3661L72.0404 13.5749C71.7268 13.7913 71.7959 13.4602 71.6783 13.3078C71.6597 13.2834 71.4562 13.1122 71.4189 13.0877C71.3629 13.0501 71.096 12.8996 71.0531 12.9391L71.0886 13.2062C71.0662 13.3774 70.7769 12.924 70.7526 12.9033C70.7284 12.8808 70.4932 12.7322 70.4689 12.7265C70.4148 12.7152 70.064 12.7171 70.036 12.734C70.0248 12.7397 69.9072 12.909 69.896 12.9316C69.8176 13.0896 69.8325 13.2551 69.7541 13.3925C69.6347 13.6013 69.3958 13.6314 69.1718 13.5731C68.9815 13.5223 68.6791 13.1686 68.7202 12.9579C68.7407 12.8526 68.821 12.8845 68.8807 12.8337C69.2353 12.5327 69.0505 12.3785 68.7351 12.1941C68.8826 11.5602 67.8393 11.7878 67.8729 11.1952C67.9363 11.2103 68.0166 11.1708 68.0688 11.1745C68.0856 11.1745 68.3544 11.2893 68.3749 11.3024C68.4496 11.3438 68.5877 11.705 68.7034 11.658C68.7426 11.4868 68.9628 11.4078 68.8751 11.2027C68.8284 11.0936 68.3656 11.0598 68.1939 10.9243C68.0241 10.7907 67.9345 10.5142 67.7889 10.3919V10.3825H67.787ZM75.2206 22.2605C75.355 22.1721 75.3233 21.9689 75.3251 21.8335C75.2038 21.9219 75.2225 22.1307 75.2206 22.2605Z" fill="#307BBF"/>
<path d="M119.126 24.3939C119.126 24.3112 119.117 24.1776 119.194 24.123C119.194 24.2096 119.213 24.3375 119.126 24.3939Z" fill="white"/>
<path d="M1.04701 8.13813C0.933165 7.58694 0.531904 6.82317 1.28217 6.55039C1.72636 6.38861 2.24146 6.48267 2.67445 6.6294L9.66946 0L21.9835 3.44827L18.4169 6.32088C18.3292 6.33405 18.3703 6.30395 18.3554 6.26068C18.305 6.1083 18.2994 5.82236 18.1594 5.74899C17.9522 5.64176 17.1329 5.51384 16.8567 5.46869C15.4271 5.2373 13.7866 5.15641 12.3476 5.31631C9.32605 5.65305 6.60681 7.32169 4.31869 9.23676L4.55011 10.2902L2.04363 9.68261L2.91148 13.1873L3.6804 13.018L4.0966 14.7468L2.92081 14.3461L2.06043 15.2322L1.97458 15.2266L1.57892 13.5222L2.35718 13.3021L1.41095 9.54716L1.35122 9.47944L0 9.14082V9.09755L1.04888 8.13249V8.13813H1.04701ZM2.05296 7.16931C1.94845 7.12416 1.54532 7.05079 1.48 7.13357C1.39415 7.32357 1.50986 7.50417 1.51546 7.69229L2.0511 7.16743L2.05296 7.16931ZM2.00444 9.25558C2.62406 9.28379 2.76217 8.34883 2.17801 8.20774C1.34936 8.00833 1.2691 9.21983 2.00444 9.25558Z" fill="#307BBF"/>
<path d="M5.11571 9.34974C5.10451 10.3524 5.09518 11.3551 5.08398 12.3559C6.69836 11.4097 9.42134 10.1022 13.0159 9.67895C15.248 9.41746 17.1759 9.57172 18.6223 9.80876C18.2789 8.61983 17.9337 7.4309 17.5903 6.24197C17.1946 6.16861 16.8008 6.06326 16.4033 5.9993C12.6986 5.39355 9.92151 5.98237 6.83274 8.05546C6.23738 8.45616 5.68494 8.92082 5.11385 9.35162L5.11571 9.34974Z" fill="#307BBF"/>
<path d="M27.0787 17.2359C27.0787 21.9464 23.6521 25.0241 15.6773 25.0241H13.2156V31.9639H5.08398V9.35547H15.6754C23.6502 9.35547 27.0768 11.7107 27.0768 17.2378L27.0787 17.2359ZM18.8538 17.1399C18.8538 15.7591 17.7638 14.9728 15.6754 14.9728H13.2137V19.4632H15.6754C17.762 19.4632 18.8538 18.6468 18.8538 17.1399Z" fill="#307BBF"/>
<path d="M51.8578 31.8999H43.2597L40.798 25.8706C40.2679 24.6139 39.6763 24.4258 38.648 24.4258H36.5913V31.962H28.553V9.35352H39.2377C46.871 9.35352 50.4525 11.6768 50.4525 16.6395C50.4525 19.2148 48.5526 21.8203 45.7176 22.1345C47.7109 22.5747 48.3659 23.8934 49.1125 25.5564L51.8541 31.8999H51.8578ZM42.263 17.0477C42.263 15.697 41.2347 14.9445 39.2415 14.9445H36.5931V19.1528H39.2732C41.2664 19.1528 42.263 18.3683 42.263 17.0496V17.0477Z" fill="#307BBF"/>
<path d="M16.7018 37.8408C17.7936 38.8905 18.4001 40.0851 18.5196 41.4207H16.4573C16.224 40.4067 15.7574 39.6016 15.0594 39.009C14.3614 38.4164 13.3816 38.1192 12.118 38.1192C10.5802 38.1192 9.33722 38.6647 8.39099 39.754C7.44476 40.8432 6.97071 42.5137 6.97071 44.7655C6.97071 46.6091 7.3981 48.1047 8.25288 49.2522C9.10766 50.3998 10.3824 50.9735 12.077 50.9735C13.6372 50.9735 14.8242 50.3697 15.6398 49.1619C16.0728 48.5261 16.3957 47.6889 16.6084 46.6543H18.6707C18.486 48.3116 17.8775 49.7018 16.8417 50.8249C15.6006 52.1756 13.9284 52.851 11.8213 52.851C10.0054 52.851 8.48244 52.2979 7.24879 51.1899C5.62509 49.7244 4.81323 47.4632 4.81323 44.4043C4.81323 42.081 5.42352 40.1772 6.64224 38.6911C7.96173 37.077 9.77954 36.2681 12.0975 36.2681C14.0758 36.2681 15.61 36.7929 16.7018 37.8445V37.8408Z" fill="#686868"/>
<path d="M34.1108 38.945C35.1466 40.3389 35.6636 42.1223 35.6636 44.2933C35.6636 46.6448 35.072 48.5994 33.8868 50.157C32.4964 51.9874 30.5162 52.9017 27.9426 52.9017C25.5387 52.9017 23.65 52.1022 22.2745 50.5013C21.0483 48.9568 20.4343 47.006 20.4343 44.6488C20.4343 42.5193 20.9588 40.6964 22.0076 39.182C23.3551 37.2387 25.3465 36.2661 27.9836 36.2661C30.6208 36.2661 32.7838 37.1597 34.1089 38.9468L34.1108 38.945ZM32.2445 48.9737C33.0768 47.6268 33.4949 46.0785 33.4949 44.3271C33.4949 42.476 33.0153 40.9861 32.0541 39.8574C31.0929 38.7286 29.779 38.1643 28.1143 38.1643C26.4495 38.1643 25.1785 38.723 24.1577 39.8423C23.1368 40.9616 22.6254 42.6096 22.6254 44.7899C22.6254 46.5338 23.064 48.0049 23.9393 49.2013C24.8146 50.3978 26.2349 50.996 28.1983 50.996C30.1616 50.996 31.4121 50.3225 32.2445 48.9756V48.9737Z" fill="#686868"/>
<path d="M38.185 36.6934H40.684L48.5748 49.4499V36.6934H50.5849V52.441H48.2128L40.2043 39.6958V52.441H38.1831V36.6934H38.185Z" fill="#686868"/>
<path d="M55.2956 47.3594C55.346 48.253 55.555 48.9772 55.9227 49.536C56.6244 50.58 57.8618 51.1011 59.6348 51.1011C60.428 51.1011 61.1521 50.9864 61.8035 50.7587C63.0651 50.3167 63.696 49.5228 63.696 48.379C63.696 47.5212 63.4309 46.9098 62.899 46.5467C62.3597 46.1893 61.5161 45.8789 60.3683 45.6136L58.2519 45.132C56.8689 44.8179 55.891 44.4717 55.3161 44.0917C54.3232 43.4352 53.8268 42.4513 53.8268 41.1439C53.8268 39.7292 54.312 38.5685 55.2844 37.6599C56.2549 36.7531 57.6304 36.2979 59.4109 36.2979C61.0476 36.2979 62.4399 36.6967 63.5858 37.4924C64.7299 38.2901 65.3029 39.5636 65.3029 41.3132H63.3134C63.207 40.4704 62.9793 39.8232 62.6321 39.3736C61.9864 38.5515 60.8909 38.1414 59.3455 38.1414C58.097 38.1414 57.2011 38.4067 56.6543 38.9353C56.1075 39.4639 55.835 40.0791 55.835 40.7789C55.835 41.5502 56.1541 42.1146 56.7924 42.472C57.2105 42.7015 58.1567 42.9875 59.6311 43.3298L61.8222 43.834C62.8785 44.0767 63.6941 44.4096 64.2689 44.831C65.2618 45.5666 65.7582 46.6351 65.7582 48.0366C65.7582 49.7805 65.1293 51.0278 63.8714 51.7784C62.6135 52.529 61.1503 52.9033 59.4855 52.9033C57.5427 52.9033 56.0216 52.4029 54.9223 51.4021C53.8231 50.4088 53.2837 49.0619 53.3061 47.3613H55.2956V47.3594Z" fill="#686868"/>
<path d="M70.7377 36.6934V46.4268C70.7377 47.5705 70.9504 48.5206 71.3759 49.2787C72.0068 50.4225 73.0706 50.9944 74.5655 50.9944C76.359 50.9944 77.5778 50.3754 78.2235 49.1395C78.5706 48.4679 78.7442 47.563 78.7442 46.4268V36.6934H80.8924V45.5369C80.8924 47.4727 80.6329 48.9626 80.116 50.0067C79.166 51.9086 77.3725 52.8586 74.7353 52.8586C72.0982 52.8586 70.3084 51.9086 69.364 50.0067C68.8471 48.9626 68.5876 47.4727 68.5876 45.5369V36.6934H70.7358H70.7377Z" fill="#686868"/>
<path d="M84.1697 36.6934H86.2861V50.5654H94.1993V52.441H84.1715V36.6934H84.1697Z" fill="#686868"/>
<path d="M106.045 36.6934V38.5689H100.78V52.441H98.6319V38.5689H93.3669V36.6934H106.043H106.045Z" fill="#686868"/>
<path d="M110.916 36.6934H113.309L118.977 52.441H116.659L115.074 47.7248H108.895L107.204 52.441H105.035L110.916 36.6934ZM114.393 45.9884L112.021 39.0317L109.501 45.9884H114.393Z" fill="#686868"/>
<path d="M120.903 36.6934H123.402L131.293 49.4499V36.6934H133.303V52.441H130.931L122.922 39.6958V52.441H120.901V36.6934H120.903Z" fill="#686868"/>
<path d="M148 36.6934V38.5689H142.735V52.441H140.587V38.5689H135.322V36.6934H147.998H148Z" fill="#686868"/>
<path d="M83.5239 32.2007V10.2036H99.3038V12.7997H86.413V19.5363H98.4863V22.1173H86.413V29.6046H99.8114V32.2007H83.5258H83.5239Z" fill="#174C8D"/>
<path d="M103.798 32.2007V10.2036H111.315C113.012 10.2036 114.307 10.309 115.201 10.5197C116.452 10.8094 117.519 11.3342 118.402 12.0942C119.553 13.0743 120.414 14.3272 120.985 15.8529C121.556 17.3786 121.842 19.1225 121.842 21.0827C121.842 22.7532 121.647 24.2337 121.261 25.5242C120.875 26.8147 120.378 27.8833 119.772 28.7279C119.167 29.5726 118.505 30.2386 117.784 30.7239C117.064 31.2093 116.196 31.5761 115.179 31.8263C114.162 32.0765 112.993 32.2007 111.674 32.2007H103.8H103.798ZM106.687 29.6046H111.345C112.784 29.6046 113.913 29.4691 114.733 29.2001C115.552 28.9311 116.203 28.5492 116.69 28.0601C117.375 27.3697 117.909 26.4423 118.292 25.2759C118.673 24.1114 118.865 22.6968 118.865 21.0375C118.865 18.7368 118.49 16.9685 117.741 15.7325C116.991 14.4965 116.082 13.6688 115.009 13.2493C114.234 12.9502 112.99 12.7997 111.273 12.7997H106.687V29.6046Z" fill="#174C8D"/>
<path d="M140.135 10.2036H143.022V22.9131C143.022 25.1235 142.774 26.8787 142.278 28.1805C141.781 29.4804 140.886 30.5395 139.59 31.3541C138.295 32.1687 136.597 32.5769 134.491 32.5769C132.386 32.5769 130.776 32.2213 129.475 31.5121C128.174 30.801 127.246 29.7739 126.69 28.4288C126.134 27.0837 125.856 25.2458 125.856 22.915V10.2036H128.743V22.898C128.743 24.8094 128.919 26.2165 129.271 27.1214C129.624 28.0262 130.229 28.7242 131.087 29.2152C131.946 29.7062 132.995 29.9507 134.236 29.9507C136.36 29.9507 137.873 29.4654 138.777 28.4947C139.68 27.524 140.132 25.6597 140.132 22.898V10.2036H140.135Z" fill="#174C8D"/>
<path d="M79.7259 9.9311C79.9162 10.0233 79.9815 10.1851 80.0058 10.3845C80.0823 10.9977 79.6699 11.4925 79.4478 12.0305L79.6512 12.3654C79.7632 12.2638 79.933 12.2318 80.0487 12.3409C80.2484 12.5291 80.0562 12.7191 79.9834 12.9147L80.2204 13.3154C80.2466 13.3399 80.2727 13.2496 80.2895 13.2308C80.4239 13.0746 80.6814 13.131 80.7486 13.3192C80.8158 13.5073 80.6142 13.7086 80.5638 13.876L81.0621 14.7056C81.1013 14.7884 81.1275 14.8524 81.0995 14.9427C81.0845 14.9916 80.9763 15.2098 80.9483 15.2493C80.8774 15.3415 80.7449 15.381 80.6422 15.3227L78.6564 13.5242L78.6247 13.5506L77.8091 15.0405L78.1245 16.1918C78.0536 16.3573 77.9566 16.6527 77.7345 16.4664L76.9637 15.5446L75.7468 15.5033C75.4762 15.4337 75.6535 15.1835 75.7356 15.0311L76.8442 14.5721L77.5367 12.9975C77.5329 12.9674 77.5255 12.9824 77.5105 12.9787C76.6352 12.8075 75.7468 12.6984 74.8734 12.5178C74.7539 12.4519 74.7185 12.3428 74.7614 12.2168C74.8006 12.102 74.9201 11.8593 75.0376 11.8236L76.0678 11.7013C76.1145 11.6806 76.2283 11.3627 76.2843 11.295C76.4579 11.0824 76.8162 11.2423 76.7603 11.5151C76.7547 11.5414 76.6987 11.6167 76.7341 11.6223L77.197 11.5621C77.3034 11.3947 77.3351 11.1351 77.5908 11.1558C77.7606 11.1689 77.8502 11.327 77.8353 11.4869L78.2272 11.4398C78.5183 10.9394 78.6602 10.3055 79.1921 9.9913C79.3657 9.88783 79.5336 9.83892 79.724 9.93298H79.7259V9.9311Z" fill="#F57F21"/>
<path d="M69.7484 22.9376C63.4869 26.3181 56.266 26.2335 53.6233 22.7476C52.7834 21.6396 52.5091 20.3227 52.7219 18.9306C52.2235 20.65 52.4214 22.3074 53.4441 23.6562C56.1036 27.1628 63.3152 27.2757 69.5506 23.9102C73.7181 21.6603 76.3925 18.4246 76.9151 15.4805C76.0193 18.1405 73.4717 20.9266 69.7465 22.9376H69.7484Z" fill="#F57F21"/>
</svg>
